<?xml version="1.0" standalone="no"?>
<!DOCTYPE svg PUBLIC "-//W3C//DTD SVG 20010904//EN"
 "http://www.w3.org/TR/2001/REC-SVG-20010904/DTD/svg10.dtd">
<svg version="1.0" xmlns="http://www.w3.org/2000/svg"
 width="800.000000pt" height="400.000000pt" viewBox="0 0 1920.000000 1080.000000"
 preserveAspectRatio="xMidYMid meet">

<g transform="translate(0.000000,1080.000000) scale(0.100000,-0.100000)"
fill="#000000" stroke="none">
<path d="M1220 10226 l0 -226 45 0 44 0 3 73 3 72 75 5 c84 7 122 25 147 74
21 40 20 116 -2 154 -32 54 -67 66 -197 70 l-118 4 0 -226z m221 128 c12 -11
19 -31 19 -55 0 -52 -35 -79 -101 -79 l-49 0 0 73 c0 41 3 77 8 81 12 13 103
-2 123 -20z"/>
<path d="M2360 10225 l0 -225 45 0 45 0 0 225 0 225 -45 0 -45 0 0 -225z"/>
<path d="M38 10323 l-38 -15 0 -139 0 -138 30 -16 c38 -20 123 -19 166 1 34
16 70 65 57 78 -13 13 -66 5 -90 -14 -29 -23 -51 -25 -87 -9 -24 11 -50 61
-39 73 4 3 55 6 115 6 l108 0 0 44 c0 109 -113 175 -222 129z m126 -75 c29
-41 21 -48 -54 -48 -59 0 -70 3 -70 17 0 51 94 75 124 31z"/>
<path d="M413 10333 c-28 -5 -83 -56 -83 -77 0 -24 64 -21 100 6 39 29 83 17
88 -24 4 -29 -2 -32 -83 -43 -27 -4 -62 -13 -77 -21 -50 -26 -54 -118 -7 -156
34 -28 110 -24 148 8 l31 26 0 -26 c0 -24 4 -26 40 -26 l40 0 0 134 c0 119 -2
136 -20 159 -30 38 -102 55 -177 40z m91 -254 c-22 -25 -82 -22 -98 4 -17 27
5 51 60 63 l49 10 3 -29 c2 -17 -4 -37 -14 -48z"/>
<path d="M690 10170 l0 -170 45 0 45 0 0 114 c0 112 1 115 26 135 34 27 50 26
79 -4 24 -23 25 -31 25 -135 l0 -110 46 0 46 0 -4 133 c-2 106 -7 137 -21 158
-38 56 -131 64 -174 14 -28 -32 -33 -32 -33 5 0 28 -2 30 -40 30 l-40 0 0
-170z"/>
<path d="M1693 10333 c-28 -5 -83 -56 -83 -77 0 -24 64 -21 100 6 39 29 83 17
88 -24 4 -29 -2 -32 -83 -43 -27 -4 -62 -13 -77 -21 -50 -26 -54 -118 -7 -156
34 -28 110 -24 148 8 l31 26 0 -26 c0 -24 4 -26 40 -26 l40 0 0 134 c0 119 -2
136 -20 159 -30 38 -102 55 -177 40z m91 -254 c-22 -25 -82 -22 -98 4 -17 27
5 51 60 63 l49 10 3 -29 c2 -17 -4 -37 -14 -48z"/>
<path d="M1970 10215 c0 -135 9 -169 52 -199 43 -30 114 -17 150 28 17 21 18
21 18 -11 0 -32 1 -33 45 -33 l45 0 -2 168 -3 167 -42 3 -43 3 0 -111 c0 -104
-1 -112 -25 -135 -29 -30 -58 -32 -85 -5 -18 18 -20 33 -20 135 l0 115 -45 0
-45 0 0 -125z"/>
<path d="M2610 10333 c-81 -26 -110 -100 -62 -156 15 -16 35 -24 130 -47 43
-11 55 -33 30 -58 -19 -19 -73 -14 -93 8 -21 23 -95 29 -95 7 0 -21 29 -56 60
-72 34 -18 132 -20 163 -4 44 23 67 52 67 85 0 64 -21 82 -119 103 -78 17 -96
34 -65 65 21 22 60 20 84 -4 27 -27 90 -28 90 -2 0 23 -35 57 -73 71 -29 11
-90 13 -117 4z"/>
<path d="M2950 10318 c-56 -29 -80 -74 -80 -148 0 -108 58 -170 160 -170 68 0
116 27 142 80 24 47 23 135 0 180 -22 42 -90 80 -142 80 -20 0 -56 -10 -80
-22z m116 -56 c22 -14 34 -51 34 -102 0 -41 -5 -56 -26 -76 -29 -30 -67 -27
-96 8 -26 30 -24 117 3 152 20 26 61 35 85 18z"/>
<path d="M3260 10170 l0 -170 45 0 45 0 0 114 c0 112 1 115 26 135 34 27 50
26 79 -4 24 -23 25 -31 25 -135 l0 -110 46 0 46 0 -4 133 c-2 106 -7 137 -21
158 -38 56 -131 64 -174 14 -28 -32 -33 -32 -33 5 0 28 -2 30 -40 30 l-40 0 0
-170z"/>
<path d="M7301 10162 c-13 -25 3 -49 39 -57 32 -7 40 -32 15 -41 -8 -4 -22 -1
-30 6 -22 19 -41 7 -21 -13 21 -20 55 -22 80 -4 27 20 15 50 -27 70 -51 24
-49 41 5 33 36 -6 40 -5 28 9 -18 21 -77 20 -89 -3z"/>
<path d="M7840 10110 c0 -40 4 -70 10 -70 6 0 10 11 10 25 0 20 5 25 24 25 45
0 72 50 44 78 -7 7 -29 12 -50 12 l-38 0 0 -70z m68 28 c-2 -15 -11 -24 -25
-26 -19 -3 -23 1 -23 22 0 21 5 26 26 26 21 0 25 -4 22 -22z"/>
<path d="M8200 10110 c0 -56 3 -70 15 -70 12 0 15 14 15 70 0 56 -3 70 -15 70
-12 0 -15 -14 -15 -70z"/>
<path d="M7437 10132 c-10 -10 -17 -28 -17 -40 0 -45 63 -70 91 -36 11 14 9
15 -24 9 -30 -6 -37 -4 -37 9 0 12 9 16 35 16 39 0 46 17 17 43 -24 22 -45 21
-65 -1z m53 -17 c0 -8 -9 -15 -20 -15 -20 0 -26 11 -13 23 12 13 33 7 33 -8z"/>
<path d="M7563 10143 c-22 -8 -14 -22 11 -20 36 3 36 -17 0 -23 -23 -4 -29
-10 -29 -30 0 -23 4 -25 43 -26 l42 -1 0 42 c0 56 -23 76 -67 58z m47 -62 c0
-6 -5 -13 -10 -16 -15 -9 -43 3 -35 15 8 13 45 13 45 1z"/>
<path d="M7667 10143 c-4 -3 -7 -28 -7 -55 0 -36 4 -48 15 -48 11 0 15 11 15
39 0 22 5 43 12 47 15 10 38 -24 38 -58 0 -15 5 -28 10 -28 6 0 10 20 10 44 0
53 -21 77 -51 58 -11 -7 -19 -8 -19 -2 0 11 -13 13 -23 3z"/>
<path d="M7983 10143 c-22 -8 -14 -22 11 -20 36 3 36 -17 0 -23 -23 -4 -29
-10 -29 -30 0 -23 4 -25 43 -26 l42 -1 0 42 c0 56 -23 76 -67 58z m47 -62 c0
-6 -5 -13 -10 -16 -15 -9 -43 3 -35 15 8 13 45 13 45 1z"/>
<path d="M8084 10135 c-9 -23 5 -85 21 -91 7 -3 23 -1 34 6 14 7 21 7 21 0 0
-5 5 -10 10 -10 6 0 10 25 10 56 0 66 -22 72 -30 8 -7 -56 -34 -53 -38 4 -3
42 -17 56 -28 27z"/>
<path d="M8266 10137 c-24 -17 -11 -43 25 -51 18 -3 28 -10 24 -16 -4 -7 -19
-8 -38 -4 -28 6 -30 5 -18 -10 15 -17 48 -21 69 -7 21 13 10 44 -17 51 -14 3
-27 12 -29 19 -3 10 4 12 29 7 32 -7 33 -6 15 9 -24 18 -37 19 -60 2z"/>
<path d="M8377 10132 c-21 -23 -22 -56 -1 -76 32 -32 84 -11 84 34 0 53 -50
78 -83 42z m58 -21 c8 -26 -5 -53 -24 -49 -29 6 -27 68 3 68 8 0 17 -8 21 -19z"/>
<path d="M8487 10143 c-4 -3 -7 -28 -7 -55 0 -36 4 -48 15 -48 11 0 15 11 15
39 0 22 5 43 12 47 15 10 38 -24 38 -58 0 -15 5 -28 10 -28 6 0 10 20 10 44 0
53 -21 77 -51 58 -11 -7 -19 -8 -19 -2 0 11 -13 13 -23 3z"/>
<path d="M16258 9959 c-43 -22 -68 -63 -68 -112 0 -63 44 -96 173 -132 44 -12
61 -22 70 -42 10 -23 8 -28 -16 -49 -43 -37 -92 -33 -133 11 -25 27 -41 35
-68 35 -30 0 -36 -4 -36 -21 0 -12 9 -36 20 -54 58 -93 276 -86 316 10 19 46
18 74 -6 112 -23 38 -54 56 -134 76 -90 24 -116 57 -76 97 31 31 86 27 120
-10 21 -23 37 -30 64 -30 28 0 36 4 36 18 0 31 -40 83 -75 98 -50 20 -142 17
-187 -7z"/>
<path d="M17860 9756 l0 -226 45 0 44 0 3 73 3 72 75 5 c84 7 122 25 147 74
21 40 20 116 -2 154 -32 54 -67 66 -197 70 l-118 4 0 -226z m221 128 c12 -11
19 -31 19 -55 0 -52 -35 -79 -101 -79 l-49 0 0 73 c0 41 3 77 8 81 12 13 103
-2 123 -20z"/>
<path d="M19000 9755 l0 -225 45 0 45 0 0 225 0 225 -45 0 -45 0 0 -225z"/>
<path d="M16673 9851 c-105 -48 -114 -232 -14 -298 42 -28 126 -31 177 -7 34
16 70 65 57 78 -13 13 -66 5 -90 -14 -29 -23 -51 -25 -87 -9 -24 11 -50 61
-39 73 4 3 55 6 115 6 l108 0 0 44 c0 112 -116 177 -227 127z m131 -73 c29
-41 21 -48 -54 -48 -59 0 -70 3 -70 17 0 51 94 75 124 31z"/>
<path d="M17053 9863 c-28 -5 -83 -56 -83 -77 0 -24 64 -21 100 6 39 29 83 17
88 -24 4 -29 -2 -32 -83 -43 -27 -4 -62 -13 -77 -21 -50 -26 -54 -118 -7 -156
34 -28 110 -24 148 8 l31 26 0 -26 c0 -24 4 -26 40 -26 l40 0 0 134 c0 119 -2
136 -20 159 -30 38 -102 55 -177 40z m91 -254 c-22 -25 -82 -22 -98 4 -17 27
5 51 60 63 l49 10 3 -29 c2 -17 -4 -37 -14 -48z"/>
<path d="M17330 9700 l0 -170 45 0 45 0 0 114 c0 112 1 115 26 135 34 27 50
26 79 -4 24 -23 25 -31 25 -135 l0 -110 46 0 46 0 -4 133 c-2 106 -7 137 -21
158 -38 56 -131 64 -174 14 -28 -32 -33 -32 -33 5 0 28 -2 30 -40 30 l-40 0 0
-170z"/>
<path d="M18333 9863 c-28 -5 -83 -56 -83 -77 0 -24 64 -21 100 6 39 29 83 17
88 -24 4 -29 -2 -32 -83 -43 -27 -4 -62 -13 -77 -21 -50 -26 -54 -118 -7 -156
34 -28 110 -24 148 8 l31 26 0 -26 c0 -24 4 -26 40 -26 l40 0 0 134 c0 119 -2
136 -20 159 -30 38 -102 55 -177 40z m91 -254 c-22 -25 -82 -22 -98 4 -17 27
5 51 60 63 l49 10 3 -29 c2 -17 -4 -37 -14 -48z"/>
<path d="M18610 9745 c0 -135 9 -169 52 -199 43 -30 114 -17 150 28 17 21 18
21 18 -11 0 -32 1 -33 45 -33 l45 0 -2 168 -3 167 -42 3 -43 3 0 -111 c0 -104
-1 -112 -25 -135 -29 -30 -58 -32 -85 -5 -18 18 -20 33 -20 135 l0 115 -45 0
-45 0 0 -125z"/>
<path d="M19175 9807 c-15 -36 -10 -80 11 -98 12 -10 14 0 14 60 0 39 -2 71
-6 71 -3 0 -11 -15 -19 -33z"/>
<path d="M10368 9769 c-43 -22 -68 -63 -68 -112 0 -63 44 -96 173 -132 44 -12
61 -22 70 -42 10 -23 8 -28 -16 -49 -43 -37 -92 -33 -133 11 -25 27 -41 35
-68 35 -30 0 -36 -4 -36 -21 0 -12 9 -36 20 -54 58 -93 276 -86 316 10 19 46
18 74 -6 112 -23 38 -54 56 -134 76 -90 24 -116 57 -76 97 31 31 86 27 120
-10 21 -23 37 -30 64 -30 28 0 36 4 36 18 0 31 -40 83 -75 98 -50 20 -142 17
-187 -7z"/>
<path d="M11970 9566 l0 -226 45 0 44 0 3 73 3 72 75 5 c84 7 122 25 147 74
21 40 20 116 -2 154 -32 54 -67 66 -197 70 l-118 4 0 -226z m221 128 c12 -11
19 -31 19 -55 0 -52 -35 -79 -101 -79 l-49 0 0 73 c0 41 3 77 8 81 12 13 103
-2 123 -20z"/>
<path d="M13110 9565 l0 -225 45 0 45 0 0 225 0 225 -45 0 -45 0 0 -225z"/>
<path d="M10783 9661 c-105 -48 -114 -232 -14 -298 42 -28 126 -31 177 -7 34
16 70 65 57 78 -13 13 -66 5 -90 -14 -29 -23 -51 -25 -87 -9 -24 11 -50 61
-39 73 4 3 55 6 115 6 l108 0 0 44 c0 112 -116 177 -227 127z m131 -73 c29
-41 21 -48 -54 -48 -59 0 -70 3 -70 17 0 51 94 75 124 31z"/>
<path d="M11163 9673 c-28 -5 -83 -56 -83 -77 0 -24 64 -21 100 6 39 29 83 17
88 -24 4 -29 -2 -32 -83 -43 -27 -4 -62 -13 -77 -21 -50 -26 -54 -118 -7 -156
34 -28 110 -24 148 8 l31 26 0 -26 c0 -24 4 -26 40 -26 l40 0 0 134 c0 119 -2
136 -20 159 -30 38 -102 55 -177 40z m91 -254 c-22 -25 -82 -22 -98 4 -17 27
5 51 60 63 l49 10 3 -29 c2 -17 -4 -37 -14 -48z"/>
<path d="M11440 9510 l0 -170 45 0 45 0 0 114 c0 112 1 115 26 135 34 27 50
26 79 -4 24 -23 25 -31 25 -135 l0 -110 46 0 46 0 -4 133 c-2 106 -7 137 -21
158 -38 56 -131 64 -174 14 -28 -32 -33 -32 -33 5 0 28 -2 30 -40 30 l-40 0 0
-170z"/>
<path d="M12443 9673 c-28 -5 -83 -56 -83 -77 0 -24 64 -21 100 6 39 29 83 17
88 -24 4 -29 -2 -32 -83 -43 -27 -4 -62 -13 -77 -21 -50 -26 -54 -118 -7 -156
34 -28 110 -24 148 8 l31 26 0 -26 c0 -24 4 -26 40 -26 l40 0 0 134 c0 119 -2
136 -20 159 -30 38 -102 55 -177 40z m91 -254 c-22 -25 -82 -22 -98 4 -17 27
5 51 60 63 l49 10 3 -29 c2 -17 -4 -37 -14 -48z"/>
<path d="M12720 9555 c0 -135 9 -169 52 -199 43 -30 114 -17 150 28 17 21 18
21 18 -11 0 -32 1 -33 45 -33 l45 0 -2 168 -3 167 -42 3 -43 3 0 -111 c0 -104
-1 -112 -25 -135 -29 -30 -58 -32 -85 -5 -18 18 -20 33 -20 135 l0 115 -45 0
-45 0 0 -125z"/>
<path d="M13360 9673 c-81 -26 -110 -100 -62 -156 15 -16 35 -24 130 -47 43
-11 55 -33 30 -58 -19 -19 -73 -14 -93 8 -21 23 -95 29 -95 7 0 -21 29 -56 60
-72 34 -18 132 -20 163 -4 44 23 67 52 67 85 0 64 -21 82 -119 103 -78 17 -96
34 -65 65 21 22 60 20 84 -4 27 -27 90 -28 90 -2 0 23 -35 57 -73 71 -29 11
-90 13 -117 4z"/>
<path d="M13700 9658 c-56 -29 -80 -74 -80 -148 0 -108 58 -170 160 -170 68 0
116 27 142 80 24 47 23 135 0 180 -22 42 -90 80 -142 80 -20 0 -56 -10 -80
-22z m116 -56 c22 -14 34 -51 34 -102 0 -41 -5 -56 -26 -76 -29 -30 -67 -27
-96 8 -26 30 -24 117 3 152 20 26 61 35 85 18z"/>
<path d="M14010 9510 l0 -170 45 0 45 0 0 114 c0 112 1 115 26 135 34 27 50
26 79 -4 24 -23 25 -31 25 -135 l0 -110 46 0 46 0 -4 133 c-2 106 -7 137 -21
158 -38 56 -131 64 -174 14 -28 -32 -33 -32 -33 5 0 28 -2 30 -40 30 l-40 0 0
-170z"/>
<path d="M19160 9616 c0 -8 9 -24 20 -37 l19 -24 1 38 c0 30 -3 37 -20 37 -11
0 -20 -6 -20 -14z"/>
<path d="M4665 9551 c-126 -33 -191 -147 -135 -238 27 -45 60 -63 159 -90 47
-12 97 -31 111 -41 82 -61 -30 -152 -134 -108 -25 10 -41 25 -49 46 -11 28
-15 30 -64 30 -50 0 -53 -1 -53 -26 0 -48 40 -102 96 -130 59 -29 162 -34 234
-13 118 36 157 175 72 259 -36 36 -71 51 -184 80 -81 21 -108 64 -70 110 13
16 32 24 70 28 50 4 54 3 86 -32 31 -32 40 -36 87 -36 l52 0 -7 31 c-9 46 -41
85 -89 108 -47 23 -137 34 -182 22z"/>
<path d="M6660 9260 l0 -290 60 0 60 0 0 95 0 95 68 0 c142 0 219 48 241 148
22 104 -33 205 -126 231 -21 6 -98 11 -170 11 l-133 0 0 -290z m285 165 c35
-34 35 -106 1 -140 -24 -24 -90 -40 -137 -33 -23 3 -24 6 -27 101 l-3 97 71 0
c62 0 74 -3 95 -25z"/>
<path d="M8130 9260 l0 -290 60 0 60 0 0 290 0 290 -60 0 -60 0 0 -290z"/>
<path d="M5147 9396 c-86 -32 -131 -105 -131 -211 1 -142 75 -217 214 -217 82
0 138 25 170 77 12 20 20 38 18 40 -3 3 -25 8 -50 11 -39 6 -48 3 -71 -20 -38
-38 -98 -36 -138 3 -17 17 -29 40 -29 55 l0 26 146 0 146 0 -4 64 c-7 112 -71
175 -183 183 -27 2 -67 -3 -88 -11z m140 -98 c11 -13 24 -33 28 -45 6 -23 5
-23 -89 -23 -87 0 -96 2 -96 19 0 10 12 30 26 45 35 35 101 37 131 4z"/>
<path d="M5630 9404 c-58 -24 -82 -40 -100 -69 -30 -48 -26 -55 30 -55 36 0
55 5 70 20 42 42 114 33 126 -16 9 -37 -12 -50 -89 -59 -147 -16 -206 -85
-163 -190 18 -42 63 -66 125 -67 51 0 108 23 118 48 9 24 23 15 23 -16 0 -30
0 -30 56 -30 l56 0 -3 169 c-4 188 -10 205 -78 245 -32 19 -142 31 -171 20z
m130 -268 c0 -70 -80 -118 -135 -82 -54 36 -22 88 66 105 69 14 69 14 69 -23z"/>
<path d="M6155 9394 c-16 -8 -40 -27 -52 -42 l-22 -27 -1 38 0 37 -55 0 -55 0
0 -215 0 -215 60 0 60 0 0 148 c0 142 1 149 23 170 31 30 89 30 117 0 18 -20
20 -35 20 -170 l0 -148 61 0 61 0 -4 168 c-3 145 -6 171 -23 201 -38 63 -125
89 -190 55z"/>
<path d="M7290 9404 c-58 -24 -82 -40 -100 -69 -30 -48 -26 -55 30 -55 36 0
55 5 70 20 42 42 114 33 126 -16 9 -37 -12 -50 -89 -59 -147 -16 -206 -85
-163 -190 18 -42 63 -66 125 -67 51 0 108 23 118 48 9 24 23 15 23 -16 0 -30
0 -30 56 -30 l56 0 -3 169 c-4 188 -10 205 -78 245 -32 19 -142 31 -171 20z
m130 -268 c0 -70 -80 -118 -135 -82 -54 36 -22 88 66 105 69 14 69 14 69 -23z"/>
<path d="M8437 9396 c-49 -18 -67 -34 -84 -74 -36 -87 26 -156 157 -177 56 -9
90 -29 90 -55 0 -25 -29 -40 -79 -40 -30 0 -44 6 -59 25 -15 19 -29 25 -58 24
-22 0 -47 -4 -57 -7 -16 -7 -16 -9 1 -42 29 -54 87 -81 175 -82 124 0 192 50
192 140 0 59 -40 96 -122 112 -92 18 -128 33 -131 57 -7 51 103 70 128 23 9
-16 21 -20 66 -20 53 0 55 1 48 23 -12 40 -34 65 -72 83 -48 23 -146 28 -195
10z"/>
<path d="M8917 9395 c-98 -34 -151 -144 -127 -260 23 -110 93 -167 204 -167
118 0 191 62 211 179 28 174 -126 307 -288 248z m133 -95 c84 -84 23 -280 -76
-245 -63 23 -91 117 -60 200 10 25 25 49 34 55 29 16 81 11 102 -10z"/>
<path d="M9475 9394 c-16 -8 -40 -27 -52 -42 l-22 -27 -1 38 0 37 -55 0 -55 0
0 -215 0 -215 60 0 60 0 0 148 c0 142 1 149 23 170 31 30 89 30 117 0 18 -20
20 -35 20 -170 l0 -148 61 0 61 0 -4 168 c-3 145 -6 171 -23 201 -38 63 -125
89 -190 55z"/>
<path d="M7630 9253 c0 -169 8 -208 50 -248 41 -40 123 -47 174 -16 19 12 38
31 41 41 11 34 25 22 25 -20 l0 -40 55 0 55 0 0 215 0 215 -60 0 -60 0 0 -139
c0 -133 -1 -141 -24 -167 -31 -37 -90 -39 -117 -5 -17 20 -19 41 -19 167 l0
144 -60 0 -60 0 0 -147z"/>
<path d="M2241 9242 c-13 -25 3 -49 39 -57 32 -7 40 -32 15 -41 -8 -4 -22 -1
-30 6 -22 19 -41 7 -21 -13 21 -20 55 -22 80 -4 27 20 15 50 -27 70 -51 24
-49 41 5 33 36 -6 40 -5 28 9 -18 21 -77 20 -89 -3z"/>
<path d="M2780 9190 c0 -40 4 -70 10 -70 6 0 10 11 10 25 0 20 5 25 24 25 45
0 72 50 44 78 -7 7 -29 12 -50 12 l-38 0 0 -70z m68 28 c-2 -15 -11 -24 -25
-26 -19 -3 -23 1 -23 22 0 21 5 26 26 26 21 0 25 -4 22 -22z"/>
<path d="M3140 9190 c0 -56 3 -70 15 -70 12 0 15 14 15 70 0 56 -3 70 -15 70
-12 0 -15 -14 -15 -70z"/>
<path d="M2377 9212 c-10 -10 -17 -28 -17 -40 0 -45 63 -70 91 -36 11 14 9 15
-24 9 -30 -6 -37 -4 -37 9 0 12 9 16 35 16 39 0 46 17 17 43 -24 22 -45 21
-65 -1z m53 -17 c0 -8 -9 -15 -20 -15 -20 0 -26 11 -13 23 12 13 33 7 33 -8z"/>
<path d="M2503 9223 c-22 -8 -14 -22 11 -20 36 3 36 -17 0 -23 -23 -4 -29 -10
-29 -30 0 -23 4 -25 43 -26 l42 -1 0 42 c0 56 -23 76 -67 58z m47 -62 c0 -6
-5 -13 -10 -16 -15 -9 -43 3 -35 15 8 13 45 13 45 1z"/>
<path d="M2607 9223 c-4 -3 -7 -28 -7 -55 0 -36 4 -48 15 -48 11 0 15 11 15
39 0 22 5 43 12 47 15 10 38 -24 38 -58 0 -15 5 -28 10 -28 6 0 10 20 10 44 0
53 -21 77 -51 58 -11 -7 -19 -8 -19 -2 0 11 -13 13 -23 3z"/>
<path d="M2923 9223 c-22 -8 -14 -22 11 -20 36 3 36 -17 0 -23 -23 -4 -29 -10
-29 -30 0 -23 4 -25 43 -26 l42 -1 0 42 c0 56 -23 76 -67 58z m47 -62 c0 -6
-5 -13 -10 -16 -15 -9 -43 3 -35 15 8 13 45 13 45 1z"/>
<path d="M3024 9215 c-9 -23 5 -85 21 -91 7 -3 23 -1 34 6 14 7 21 7 21 0 0
-5 5 -10 10 -10 6 0 10 25 10 56 0 66 -22 72 -30 8 -7 -56 -34 -53 -38 4 -3
42 -17 56 -28 27z"/>
<path d="M3206 9217 c-24 -17 -11 -43 25 -51 18 -3 28 -10 24 -16 -4 -7 -19
-8 -38 -4 -28 6 -30 5 -18 -10 15 -17 48 -21 69 -7 21 13 10 44 -17 51 -14 3
-27 12 -29 19 -3 10 4 12 29 7 32 -7 33 -6 15 9 -24 18 -37 19 -60 2z"/>
<path d="M3317 9212 c-21 -23 -22 -56 -1 -76 32 -32 84 -11 84 34 0 53 -50 78
-83 42z m58 -21 c8 -26 -5 -53 -24 -49 -29 6 -27 68 3 68 8 0 17 -8 21 -19z"/>
<path d="M3427 9223 c-4 -3 -7 -28 -7 -55 0 -36 4 -48 15 -48 11 0 15 11 15
39 0 22 5 43 12 47 15 10 38 -24 38 -58 0 -15 5 -28 10 -28 6 0 10 20 10 44 0
53 -21 77 -51 58 -11 -7 -19 -8 -19 -2 0 11 -13 13 -23 3z"/>
<path d="M15051 8962 c-13 -25 3 -49 39 -57 32 -7 40 -32 15 -41 -8 -4 -22 -1
-30 6 -22 19 -41 7 -21 -13 21 -20 55 -22 80 -4 27 20 15 50 -27 70 -51 24
-49 41 5 33 36 -6 40 -5 28 9 -18 21 -77 20 -89 -3z"/>
<path d="M15590 8910 c0 -40 4 -70 10 -70 6 0 10 11 10 25 0 20 5 25 24 25 45
0 72 50 44 78 -7 7 -29 12 -50 12 l-38 0 0 -70z m68 28 c-2 -15 -11 -24 -25
-26 -19 -3 -23 1 -23 22 0 21 5 26 26 26 21 0 25 -4 22 -22z"/>
<path d="M15950 8910 c0 -56 3 -70 15 -70 12 0 15 14 15 70 0 56 -3 70 -15 70
-12 0 -15 -14 -15 -70z"/>
<path d="M15187 8932 c-10 -10 -17 -28 -17 -40 0 -45 63 -70 91 -36 11 14 9
15 -24 9 -30 -6 -37 -4 -37 9 0 12 9 16 35 16 39 0 46 17 17 43 -24 22 -45 21
-65 -1z m53 -17 c0 -8 -9 -15 -20 -15 -20 0 -26 11 -13 23 12 13 33 7 33 -8z"/>
<path d="M15313 8943 c-22 -8 -14 -22 11 -20 36 3 36 -17 0 -23 -23 -4 -29
-10 -29 -30 0 -23 4 -25 43 -26 l42 -1 0 42 c0 56 -23 76 -67 58z m47 -62 c0
-6 -5 -13 -10 -16 -15 -9 -43 3 -35 15 8 13 45 13 45 1z"/>
<path d="M15417 8943 c-4 -3 -7 -28 -7 -55 0 -36 4 -48 15 -48 11 0 15 11 15
39 0 22 5 43 12 47 15 10 38 -24 38 -58 0 -15 5 -28 10 -28 6 0 10 20 10 44 0
53 -21 77 -51 58 -11 -7 -19 -8 -19 -2 0 11 -13 13 -23 3z"/>
<path d="M15733 8943 c-22 -8 -14 -22 11 -20 36 3 36 -17 0 -23 -23 -4 -29
-10 -29 -30 0 -23 4 -25 43 -26 l42 -1 0 42 c0 56 -23 76 -67 58z m47 -62 c0
-6 -5 -13 -10 -16 -15 -9 -43 3 -35 15 8 13 45 13 45 1z"/>
<path d="M15834 8935 c-9 -23 5 -85 21 -91 7 -3 23 -1 34 6 14 7 21 7 21 0 0
-5 5 -10 10 -10 6 0 10 25 10 56 0 66 -22 72 -30 8 -7 -56 -34 -53 -38 4 -3
42 -17 56 -28 27z"/>
<path d="M16016 8937 c-24 -17 -11 -43 25 -51 18 -3 28 -10 24 -16 -4 -7 -19
-8 -38 -4 -28 6 -30 5 -18 -10 15 -17 48 -21 69 -7 21 13 10 44 -17 51 -14 3
-27 12 -29 19 -3 10 4 12 29 7 32 -7 33 -6 15 9 -24 18 -37 19 -60 2z"/>
<path d="M16127 8932 c-21 -23 -22 -56 -1 -76 32 -32 84 -11 84 34 0 53 -50
78 -83 42z m58 -21 c8 -26 -5 -53 -24 -49 -29 6 -27 68 3 68 8 0 17 -8 21 -19z"/>
<path d="M16237 8943 c-4 -3 -7 -28 -7 -55 0 -36 4 -48 15 -48 11 0 15 11 15
39 0 22 5 43 12 47 15 10 38 -24 38 -58 0 -15 5 -28 10 -28 6 0 10 20 10 44 0
53 -21 77 -51 58 -11 -7 -19 -8 -19 -2 0 11 -13 13 -23 3z"/>
<path d="M12103 8560 c-93 -56 -61 -152 59 -179 31 -6 62 -18 68 -26 32 -38
-23 -83 -78 -64 -17 6 -34 19 -37 30 -5 14 -16 19 -41 19 -38 0 -41 -8 -19
-50 20 -40 63 -60 125 -60 87 0 130 34 130 103 0 43 -41 81 -103 97 -73 18
-102 45 -78 74 20 24 88 21 103 -4 9 -13 24 -20 45 -20 37 0 37 -1 23 34 -23
61 -132 86 -197 46z"/>
<path d="M13340 8405 l0 -175 35 0 34 0 3 58 3 57 60 6 c75 7 87 12 108 48 38
65 8 152 -60 170 -21 6 -71 11 -110 11 l-73 0 0 -175z m172 98 c44 -39 6 -103
-62 -103 l-40 0 0 60 0 60 42 0 c24 0 49 -7 60 -17z"/>
<path d="M14220 8405 l0 -175 35 0 35 0 0 175 0 175 -35 0 -35 0 0 -175z"/>
<path d="M12409 8475 c-76 -41 -76 -190 0 -229 48 -25 114 -21 150 10 17 14
31 29 31 34 0 15 -55 19 -71 4 -34 -31 -99 -7 -99 37 0 17 8 19 90 19 l90 0
-6 28 c-12 56 -28 83 -55 97 -35 19 -96 19 -130 0z m109 -47 c7 -7 12 -20 12
-30 0 -15 -9 -18 -55 -18 -41 0 -55 4 -55 14 0 38 70 62 98 34z"/>
<path d="M12681 8464 c-17 -14 -31 -30 -31 -35 0 -13 64 -11 77 2 6 6 23 9 39
7 21 -2 30 -9 32 -25 3 -18 -3 -23 -35 -28 -83 -14 -94 -17 -108 -38 -36 -52
0 -117 66 -117 19 0 44 7 55 15 25 19 38 19 30 0 -4 -12 3 -15 29 -15 l35 0 0
101 c0 98 -1 101 -29 130 -25 24 -38 29 -79 29 -40 0 -57 -6 -81 -26z m119
-138 c0 -24 -32 -56 -57 -56 -23 0 -44 30 -33 50 9 16 25 22 78 29 6 0 12 -10
12 -23z"/>
<path d="M12930 8360 l0 -130 35 0 35 0 0 88 c0 73 3 92 18 105 24 22 45 21
65 -1 13 -14 17 -39 17 -105 l0 -87 35 0 35 0 0 89 c0 97 -12 146 -40 161 -32
17 -82 11 -107 -12 l-23 -21 0 21 c0 18 -6 22 -35 22 l-35 0 0 -130z"/>
<path d="M13671 8464 c-17 -14 -31 -30 -31 -35 0 -13 64 -11 77 2 6 6 23 9 39
7 21 -2 30 -9 32 -25 3 -18 -3 -23 -35 -28 -83 -14 -94 -17 -108 -38 -36 -52
0 -117 66 -117 19 0 44 7 55 15 24 18 35 19 32 3 -2 -8 10 -14 30 -16 l32 -3
0 101 c0 99 -1 102 -29 131 -25 24 -38 29 -79 29 -40 0 -57 -6 -81 -26z m119
-138 c0 -24 -32 -56 -57 -56 -23 0 -44 30 -33 50 9 16 25 22 78 29 6 0 12 -10
12 -23z"/>
<path d="M13922 8384 c3 -102 4 -107 31 -130 37 -31 81 -31 112 1 l25 24 0
-24 c0 -22 5 -25 35 -25 l35 0 0 130 0 130 -35 0 -35 0 0 -81 c0 -95 -10 -119
-48 -119 -45 0 -52 16 -52 112 l0 88 -36 0 -36 0 4 -106z"/>
<path d="M14400 8483 c-31 -12 -50 -37 -50 -68 0 -41 23 -61 89 -77 53 -12 73
-30 53 -50 -16 -16 -64 -12 -78 6 -10 14 -19 15 -46 8 l-33 -8 32 -32 c28 -28
38 -32 86 -32 67 0 117 34 117 79 0 37 -24 57 -85 72 -59 14 -76 25 -68 44 8
23 42 28 68 11 31 -20 75 -21 75 -2 0 28 -50 56 -99 55 -25 0 -53 -3 -61 -6z"/>
<path d="M14669 8476 c-32 -18 -59 -72 -59 -116 0 -46 28 -99 63 -117 45 -23
122 -13 155 21 24 24 27 34 27 96 0 62 -3 72 -27 96 -33 33 -117 43 -159 20z
m103 -53 c24 -21 25 -99 1 -125 -38 -42 -93 -6 -93 62 0 68 49 102 92 63z"/>
<path d="M14910 8360 l0 -130 35 0 35 0 0 88 c0 73 3 92 18 105 24 22 45 21
65 -1 13 -14 17 -39 17 -105 l0 -87 35 0 35 0 0 89 c0 97 -12 146 -40 161 -32
17 -82 11 -107 -12 l-23 -21 0 21 c0 18 -6 22 -35 22 l-35 0 0 -130z"/>
<path d="M844 8336 c-43 -19 -64 -53 -64 -104 0 -57 28 -83 124 -111 93 -26
110 -48 71 -87 -22 -22 -33 -25 -63 -21 -23 4 -45 16 -57 32 -29 35 -85 36
-85 1 0 -28 39 -72 75 -86 49 -19 139 -12 176 13 60 40 69 128 18 170 -12 9
-47 24 -78 33 -99 28 -128 64 -79 98 32 23 65 20 94 -9 26 -26 94 -36 94 -14
0 24 -36 70 -66 84 -39 18 -118 19 -160 1z"/>
<path d="M2260 8150 l0 -200 40 0 40 0 0 65 0 65 43 0 c61 0 110 16 138 46 20
22 24 36 24 89 0 53 -4 67 -24 89 -32 34 -78 46 -178 46 l-83 0 0 -200z m192
113 c23 -21 23 -75 0 -96 -10 -9 -40 -20 -65 -23 l-47 -7 0 72 0 71 47 0 c29
0 53 -6 65 -17z"/>
<path d="M3270 8150 l0 -200 35 0 35 0 0 200 0 200 -35 0 -35 0 0 -200z"/>
<path d="M1193 8231 c-79 -50 -92 -177 -24 -244 55 -56 181 -47 220 15 25 39
-31 52 -78 17 -33 -24 -73 -18 -96 14 -30 42 -21 47 85 47 l100 0 0 45 c0 37
-6 52 -33 82 -29 31 -41 37 -88 40 -42 3 -61 0 -86 -16z m119 -58 c35 -32 23
-43 -47 -43 -36 0 -65 3 -65 8 0 4 7 18 16 30 18 27 69 30 96 5z"/>
<path d="M1512 8230 c-38 -23 -51 -48 -31 -61 19 -12 59 -11 59 1 0 6 12 15
26 21 20 7 32 6 51 -6 42 -28 26 -48 -52 -62 -98 -18 -136 -64 -103 -126 18
-34 40 -46 84 -47 27 0 50 7 68 21 l26 20 0 -20 c0 -17 6 -21 35 -21 l36 0 -3
127 -3 127 -34 23 c-44 30 -113 31 -159 3z m128 -165 c0 -14 -9 -34 -20 -45
-33 -33 -90 -24 -90 15 0 27 10 35 54 46 51 12 56 10 56 -16z"/>
<path d="M1790 8100 l0 -150 35 0 35 0 0 95 c0 88 2 98 25 120 29 30 49 31 75
5 17 -17 20 -33 20 -120 l0 -100 40 0 40 0 0 98 c0 123 -12 167 -50 187 -43
22 -84 19 -119 -11 l-31 -26 0 26 c0 23 -4 26 -35 26 l-35 0 0 -150z"/>
<path d="M2652 8230 c-38 -23 -51 -48 -31 -61 19 -12 59 -11 59 1 0 6 12 15
26 21 20 7 32 6 51 -6 42 -28 26 -48 -52 -62 -98 -18 -136 -64 -103 -126 18
-34 40 -46 84 -47 27 0 50 7 68 21 l26 20 0 -20 c0 -17 6 -21 35 -21 l36 0 -3
127 -3 127 -34 23 c-44 30 -113 31 -159 3z m128 -165 c0 -14 -9 -34 -20 -45
-33 -33 -90 -24 -90 15 0 27 10 35 54 46 51 12 56 10 56 -16z"/>
<path d="M2930 8129 c0 -120 0 -121 29 -150 39 -38 87 -39 130 -3 l31 26 0
-26 c0 -24 4 -26 40 -26 l40 0 0 150 0 150 -40 0 -40 0 0 -95 c0 -89 -2 -98
-25 -121 -15 -15 -32 -23 -41 -20 -9 3 -19 6 -23 6 -18 0 -31 58 -31 140 l0
90 -35 0 -35 0 0 -121z"/>
<path d="M3463 8235 c-35 -15 -53 -41 -53 -79 0 -46 30 -65 141 -90 34 -7 46
-36 23 -53 -26 -19 -62 -16 -81 7 -21 24 -71 27 -80 4 -3 -10 4 -26 21 -42 24
-24 34 -27 101 -27 66 0 77 3 99 25 14 14 28 37 31 52 10 39 -35 82 -94 92
-80 13 -107 45 -56 68 22 10 30 8 55 -10 21 -16 37 -20 59 -16 30 6 30 7 16
34 -24 47 -115 65 -182 35z"/>
<path d="M3785 8232 c-41 -25 -51 -40 -64 -89 -15 -57 -1 -118 38 -156 24 -24
40 -31 84 -35 65 -5 109 14 137 61 27 44 27 131 0 175 -36 59 -134 81 -195 44z
m119 -64 c9 -12 16 -43 16 -68 0 -57 -22 -90 -59 -90 -42 0 -66 33 -66 90 0
33 6 54 19 69 25 28 70 27 90 -1z"/>
<path d="M4070 8100 l0 -150 35 0 35 0 0 95 c0 88 2 98 25 120 29 30 49 31 75
5 17 -17 20 -33 20 -120 l0 -100 40 0 40 0 0 98 c0 123 -12 167 -50 187 -43
22 -84 19 -119 -11 l-31 -26 0 26 c0 23 -4 26 -35 26 l-35 0 0 -150z"/>
<path d="M6845 8036 c-40 -17 -55 -37 -62 -79 -7 -48 26 -80 103 -103 33 -9
65 -21 72 -26 20 -17 14 -46 -13 -64 -33 -21 -86 -9 -100 24 -7 16 -18 22 -42
22 -38 0 -38 1 -18 -46 24 -58 121 -83 200 -50 39 17 55 42 55 89 0 46 -38 78
-118 101 -44 12 -63 22 -67 37 -16 49 71 73 106 31 11 -14 28 -22 48 -22 35 0
35 -1 21 34 -21 56 -115 83 -185 52z"/>
<path d="M8070 7876 l0 -176 35 0 34 0 3 58 3 57 63 5 c56 4 67 9 93 38 32 35
38 81 17 126 -20 45 -54 59 -155 64 l-93 5 0 -177z m172 97 c22 -20 23 -61 1
-85 -11 -12 -30 -18 -60 -18 l-43 0 0 60 0 60 42 0 c24 0 49 -7 60 -17z"/>
<path d="M8950 7875 l0 -175 35 0 35 0 0 175 0 175 -35 0 -35 0 0 -175z"/>
<path d="M7137 7942 c-55 -34 -71 -136 -31 -197 34 -51 142 -59 190 -14 13 12
24 26 24 30 0 14 -55 17 -71 3 -34 -31 -99 -7 -99 37 0 17 8 19 89 19 l88 0
-7 42 c-16 84 -110 126 -183 80z m111 -44 c7 -7 12 -20 12 -30 0 -15 -9 -18
-55 -18 -57 0 -63 6 -45 41 12 22 68 27 88 7z"/>
<path d="M7407 7928 l-32 -33 29 -3 c16 -2 39 2 51 8 33 18 69 9 73 -17 3 -18
-3 -23 -35 -28 -72 -12 -84 -16 -103 -35 -11 -11 -20 -33 -20 -49 0 -57 87
-93 136 -56 25 19 34 19 34 0 0 -10 10 -15 30 -15 l30 0 0 101 c0 98 -1 101
-29 130 -25 25 -37 29 -81 29 -45 0 -56 -4 -83 -32z m123 -133 c0 -35 -42 -62
-75 -47 -52 24 -18 66 58 71 12 1 17 -6 17 -24z"/>
<path d="M7660 7830 l0 -130 35 0 35 0 0 88 c0 73 3 92 18 105 23 21 46 22 66
1 12 -12 16 -37 16 -105 l0 -89 36 0 36 0 -4 104 c-3 94 -5 107 -27 130 -31
33 -89 36 -116 6 -10 -11 -22 -20 -27 -20 -4 0 -8 9 -8 20 0 16 -7 20 -30 20
l-30 0 0 -130z"/>
<path d="M8397 7928 l-32 -33 29 -3 c16 -2 39 2 51 8 33 18 69 9 73 -17 3 -18
-3 -23 -35 -28 -72 -12 -84 -16 -103 -35 -11 -11 -20 -33 -20 -49 0 -57 87
-93 136 -56 25 19 34 19 34 0 0 -10 10 -15 30 -15 l30 0 0 101 c0 98 -1 101
-29 130 -25 25 -37 29 -81 29 -45 0 -56 -4 -83 -32z m123 -133 c0 -35 -42 -62
-75 -47 -52 24 -18 66 58 71 12 1 17 -6 17 -24z"/>
<path d="M8652 7854 c3 -102 4 -107 31 -130 37 -31 81 -31 112 1 l25 24 0 -24
c0 -22 5 -25 35 -25 l35 0 0 130 0 130 -35 0 -35 0 0 -83 c0 -84 -8 -108 -41
-120 -9 -3 -26 1 -38 9 -19 14 -21 25 -21 105 l0 89 -36 0 -36 0 4 -106z"/>
<path d="M9130 7953 c-32 -12 -50 -37 -50 -68 0 -42 24 -62 89 -76 57 -12 75
-34 46 -55 -21 -16 -54 -10 -72 13 -8 10 -19 12 -43 6 l-33 -9 26 -29 c23 -28
30 -30 92 -30 61 0 69 3 91 28 47 55 25 97 -61 118 -78 19 -95 40 -50 61 19 9
29 8 49 -6 27 -17 76 -22 76 -7 0 5 -8 19 -18 31 -14 18 -31 24 -73 26 -30 2
-61 1 -69 -3z"/>
<path d="M9398 7943 c-15 -9 -33 -28 -40 -41 -17 -32 -17 -112 0 -144 42 -77
176 -76 217 2 34 65 6 169 -51 190 -38 15 -96 12 -126 -7z m113 -55 c18 -33
14 -95 -6 -118 -40 -44 -95 -9 -95 60 0 20 7 46 16 58 21 30 69 30 85 0z"/>
<path d="M9640 7830 l0 -130 35 0 35 0 0 88 c0 73 3 92 18 105 23 21 46 22 66
1 12 -12 16 -37 16 -105 l0 -89 36 0 36 0 -4 104 c-3 94 -5 107 -27 130 -31
33 -89 36 -116 6 -10 -11 -22 -20 -27 -20 -4 0 -8 9 -8 20 0 16 -7 20 -30 20
l-30 0 0 -130z"/>
<path d="M18572 7527 c-41 -43 -20 -83 54 -107 37 -11 49 -20 49 -35 0 -16 -8
-21 -38 -23 -26 -2 -39 1 -43 12 -8 20 -44 21 -44 2 0 -36 58 -63 112 -52 44
9 58 24 58 61 0 39 -13 51 -71 68 -32 9 -45 19 -47 34 -4 29 31 40 63 19 48
-31 73 -14 35 24 -29 29 -99 28 -128 -3z"/>
<path d="M18780 7470 c-29 -29 -28 -99 3 -128 27 -26 73 -29 105 -6 41 28 15
49 -28 22 -23 -15 -53 -2 -58 26 -3 13 6 16 57 16 l61 0 -6 28 c-4 15 -14 35
-22 45 -21 24 -86 23 -112 -3z m88 -32 c3 -15 -4 -18 -32 -18 -34 0 -47 15
-29 34 13 13 58 1 61 -16z"/>
<path d="M18966 7471 c-16 -17 -16 -19 4 -24 11 -3 23 -1 26 4 3 5 16 9 30 9
19 0 25 -5 22 -17 -2 -10 -12 -19 -23 -21 -51 -7 -65 -14 -75 -33 -25 -45 51
-94 88 -57 9 9 12 9 12 0 0 -7 9 -12 20 -12 18 0 20 7 20 73 0 43 -5 78 -12
85 -19 19 -92 15 -112 -7z m82 -93 c-4 -31 -58 -40 -58 -9 0 20 12 29 43 30
14 1 18 -5 15 -21z"/>
<path d="M19140 7405 c0 -77 2 -85 19 -85 15 0 19 10 23 58 3 31 9 66 13 76 6
14 5 17 -3 12 -7 -4 -12 -1 -12 8 0 9 -9 16 -20 16 -18 0 -20 -7 -20 -85z"/>
<path d="M3473 7120 c-93 -56 -61 -152 59 -179 31 -6 62 -18 68 -26 32 -38
-23 -83 -78 -64 -17 6 -34 19 -37 30 -5 14 -16 19 -41 19 -38 0 -41 -8 -19
-50 20 -40 63 -60 125 -60 87 0 130 34 130 103 0 43 -41 81 -103 97 -73 18
-102 45 -78 74 20 24 88 21 103 -4 9 -13 24 -20 45 -20 37 0 37 -1 23 34 -23
61 -132 86 -197 46z"/>
<path d="M4710 6965 l0 -175 35 0 34 0 3 58 3 57 60 6 c75 7 87 12 108 48 38
65 8 152 -60 170 -21 6 -71 11 -110 11 l-73 0 0 -175z m172 98 c44 -39 6 -103
-62 -103 l-40 0 0 60 0 60 42 0 c24 0 49 -7 60 -17z"/>
<path d="M5590 6965 l0 -175 35 0 35 0 0 175 0 175 -35 0 -35 0 0 -175z"/>
<path d="M3779 7035 c-76 -41 -76 -190 0 -229 48 -25 114 -21 150 10 17 14 31
29 31 34 0 15 -55 19 -71 4 -34 -31 -99 -7 -99 37 0 17 8 19 90 19 l90 0 -6
28 c-12 56 -28 83 -55 97 -35 19 -96 19 -130 0z m109 -47 c7 -7 12 -20 12 -30
0 -15 -9 -18 -55 -18 -41 0 -55 4 -55 14 0 38 70 62 98 34z"/>
<path d="M4051 7024 c-17 -14 -31 -30 -31 -35 0 -13 64 -11 77 2 6 6 23 9 39
7 21 -2 30 -9 32 -25 3 -18 -3 -23 -35 -28 -83 -14 -94 -17 -108 -38 -36 -52
0 -117 66 -117 19 0 44 7 55 15 24 18 35 19 31 3 -1 -8 11 -14 31 -16 l32 -3
0 101 c0 99 -1 102 -29 131 -25 24 -38 29 -79 29 -40 0 -57 -6 -81 -26z m119
-138 c0 -24 -32 -56 -57 -56 -23 0 -44 30 -33 50 9 16 25 22 78 29 6 0 12 -10
12 -23z"/>
<path d="M4300 6920 l0 -130 35 0 35 0 0 88 c0 73 3 92 18 105 24 22 45 21 65
-1 13 -14 17 -39 17 -105 l0 -87 35 0 35 0 0 89 c0 97 -12 146 -40 161 -32 17
-82 11 -107 -12 l-23 -21 0 21 c0 18 -6 22 -35 22 l-35 0 0 -130z"/>
<path d="M5041 7024 c-17 -14 -31 -30 -31 -35 0 -13 64 -11 77 2 6 6 23 9 39
7 21 -2 30 -9 32 -25 3 -18 -3 -23 -35 -28 -83 -14 -94 -17 -108 -38 -36 -52
0 -117 66 -117 19 0 44 7 55 15 25 19 34 19 34 0 0 -10 10 -15 30 -15 l30 0 0
101 c0 98 -1 101 -29 130 -25 24 -38 29 -79 29 -40 0 -57 -6 -81 -26z m119
-138 c0 -24 -32 -56 -57 -56 -23 0 -44 30 -33 50 9 16 25 22 78 29 6 0 12 -10
12 -23z"/>
<path d="M5292 6944 c3 -102 4 -107 31 -130 37 -31 81 -31 112 1 l25 24 0 -24
c0 -22 5 -25 35 -25 l35 0 0 130 0 130 -35 0 -35 0 0 -81 c0 -95 -10 -119 -48
-119 -45 0 -52 16 -52 112 l0 88 -36 0 -36 0 4 -106z"/>
<path d="M5770 7043 c-31 -12 -50 -37 -50 -68 0 -41 23 -61 89 -77 53 -12 73
-30 53 -50 -16 -16 -64 -12 -78 6 -10 14 -19 15 -46 8 l-33 -8 32 -32 c28 -28
38 -32 86 -32 67 0 117 34 117 79 0 37 -24 57 -85 72 -59 14 -76 25 -68 44 8
23 42 28 68 11 31 -20 75 -21 75 -2 0 28 -50 56 -99 55 -25 0 -53 -3 -61 -6z"/>
<path d="M6039 7036 c-32 -18 -59 -72 -59 -116 0 -46 28 -99 63 -117 45 -23
122 -13 155 21 24 24 27 34 27 96 0 62 -3 72 -27 96 -33 33 -117 43 -159 20z
m103 -53 c24 -21 25 -99 1 -125 -38 -42 -93 -6 -93 62 0 68 49 102 92 63z"/>
<path d="M6280 6920 l0 -130 35 0 35 0 0 88 c0 73 3 92 18 105 23 21 46 22 66
1 12 -12 16 -37 16 -105 l0 -89 35 0 35 0 0 89 c0 97 -12 146 -40 161 -32 17
-82 11 -107 -12 l-23 -21 0 21 c0 18 -6 22 -35 22 l-35 0 0 -130z"/>
<path d="M8683 6940 c-93 -56 -61 -152 59 -179 31 -6 62 -18 68 -26 32 -38
-23 -83 -78 -64 -17 6 -34 19 -37 30 -5 14 -16 19 -41 19 -38 0 -41 -8 -19
-50 20 -40 63 -60 125 -60 87 0 130 34 130 103 0 43 -41 81 -103 97 -73 18
-102 45 -78 74 20 24 88 21 103 -4 9 -13 24 -20 45 -20 37 0 37 -1 23 34 -23
61 -132 86 -197 46z"/>
<path d="M9920 6785 l0 -175 35 0 34 0 3 58 3 57 60 6 c75 7 87 12 108 48 38
65 8 152 -60 170 -21 6 -71 11 -110 11 l-73 0 0 -175z m172 98 c44 -39 6 -103
-62 -103 l-40 0 0 60 0 60 42 0 c24 0 49 -7 60 -17z"/>
<path d="M10800 6785 l0 -175 35 0 35 0 0 175 0 175 -35 0 -35 0 0 -175z"/>
<path d="M11041 6932 c-12 -22 3 -51 27 -53 9 -1 -9 -5 -41 -9 -69 -9 -97 -31
-97 -75 0 -41 23 -61 89 -77 53 -12 73 -30 53 -50 -16 -16 -64 -12 -78 6 -10
14 -19 15 -46 8 l-33 -8 32 -32 c28 -28 38 -32 86 -32 67 0 117 34 117 79 0
37 -24 57 -85 72 -58 14 -76 25 -69 44 9 22 33 26 64 10 16 -8 41 -15 55 -15
24 0 26 3 23 37 -3 33 -8 40 -40 56 -52 24 -50 41 4 33 36 -6 40 -5 28 9 -18
21 -77 20 -89 -3z"/>
<path d="M11580 6903 c0 -27 -5 -55 -10 -63 -8 -12 -10 -11 -10 8 0 18 -6 22
-30 22 -19 0 -30 5 -30 14 0 25 -29 41 -50 28 -14 -8 -20 -8 -22 0 -7 21 -28
-3 -28 -32 0 -22 -4 -28 -15 -24 -8 4 -15 14 -15 24 0 26 -26 43 -55 36 -32
-8 -33 -25 -1 -23 43 3 33 -18 -11 -24 -29 -4 -43 -2 -43 6 0 16 -33 45 -52
45 -21 0 -48 -33 -48 -58 0 -12 9 -30 19 -39 16 -13 19 -25 14 -63 -7 -59 18
-115 60 -137 45 -23 122 -13 155 21 26 26 27 31 27 138 0 77 4 112 12 115 23
8 36 -44 41 -164 l5 -123 33 0 33 0 3 92 c3 88 4 93 30 107 24 14 28 14 47 -3
18 -17 21 -31 21 -108 l0 -88 36 0 35 0 -3 100 c-3 106 -3 106 45 102 14 -1
17 6 17 42 0 51 -18 71 -55 62 -32 -8 -33 -25 -1 -23 37 3 32 -17 -6 -25 -47
-10 -60 -3 -52 27 9 36 -11 55 -57 55 l-39 0 0 -47z m68 5 c-2 -15 -11 -24
-25 -26 -19 -3 -23 1 -23 22 0 21 5 26 26 26 21 0 25 -4 22 -22z m-418 -23 c0
-8 -9 -15 -20 -15 -20 0 -26 11 -13 23 12 13 33 7 33 -8z m4 -40 c-25 -19 -44
-19 -44 0 0 10 10 15 32 15 30 0 31 -1 12 -15z m536 6 c0 -6 -5 -13 -10 -16
-15 -9 -43 3 -35 15 8 13 45 13 45 1z m-400 -109 c0 -52 -21 -82 -56 -82 -30
0 -54 36 -54 80 0 44 16 67 50 72 39 6 60 -18 60 -70z"/>
<path d="M11940 6880 c0 -56 3 -70 15 -70 12 0 15 14 15 70 0 56 -3 70 -15 70
-12 0 -15 -14 -15 -70z"/>
<path d="M11824 6905 c-9 -23 5 -85 21 -91 7 -3 23 -1 34 6 14 7 21 7 21 0 0
-5 5 -10 10 -10 6 0 10 25 10 56 0 66 -22 72 -30 8 -7 -56 -34 -53 -38 4 -3
42 -17 56 -28 27z"/>
<path d="M12006 6907 c-24 -17 -11 -43 25 -51 18 -3 28 -10 24 -16 -4 -7 -19
-8 -38 -4 -28 6 -30 5 -18 -10 15 -17 48 -21 69 -7 21 13 10 44 -17 51 -14 3
-27 12 -29 19 -3 10 4 12 29 7 32 -7 33 -6 15 9 -24 18 -37 19 -60 2z"/>
<path d="M12117 6902 c-21 -23 -22 -56 -1 -76 32 -32 84 -11 84 34 0 53 -50
78 -83 42z m58 -21 c8 -26 -5 -53 -24 -49 -29 6 -27 68 3 68 8 0 17 -8 21 -19z"/>
<path d="M12227 6913 c-4 -3 -7 -28 -7 -55 0 -36 4 -48 15 -48 11 0 15 11 15
39 0 22 5 43 12 47 15 10 38 -24 38 -58 0 -15 5 -28 10 -28 6 0 10 20 10 44 0
53 -21 77 -51 58 -11 -7 -19 -8 -19 -2 0 11 -13 13 -23 3z"/>
<path d="M8989 6855 c-76 -41 -76 -190 0 -229 48 -25 114 -21 150 10 17 14 31
29 31 34 0 15 -55 19 -71 4 -34 -30 -104 -5 -97 35 3 13 19 17 91 19 l87 3 -6
27 c-12 55 -28 83 -55 97 -35 19 -96 19 -130 0z m109 -47 c7 -7 12 -20 12 -30
0 -15 -9 -18 -55 -18 -41 0 -55 4 -55 14 0 38 70 62 98 34z"/>
<path d="M9261 6844 c-17 -14 -31 -30 -31 -35 0 -13 64 -11 77 2 6 6 23 9 39
7 21 -2 30 -9 32 -25 3 -18 -3 -23 -35 -28 -83 -14 -94 -17 -108 -38 -36 -52
0 -117 66 -117 19 0 44 7 55 15 25 19 34 19 34 0 0 -10 10 -15 30 -15 l30 0 0
101 c0 98 -1 101 -29 130 -25 24 -38 29 -79 29 -40 0 -57 -6 -81 -26z m119
-138 c0 -24 -32 -56 -57 -56 -23 0 -44 30 -33 50 9 16 25 22 78 29 6 0 12 -10
12 -23z"/>
<path d="M9510 6740 l0 -130 35 0 35 0 0 88 c0 73 3 92 18 105 24 22 45 21 65
-1 13 -14 17 -39 17 -105 l0 -87 35 0 35 0 0 89 c0 97 -12 146 -40 161 -32 17
-82 11 -107 -12 l-23 -21 0 21 c0 18 -6 22 -35 22 l-35 0 0 -130z"/>
<path d="M10251 6844 c-17 -14 -31 -30 -31 -35 0 -13 64 -11 77 2 6 6 23 9 39
7 21 -2 30 -9 32 -25 3 -18 -3 -23 -35 -28 -83 -14 -94 -17 -108 -38 -36 -52
0 -117 66 -117 19 0 44 7 55 15 25 19 38 19 30 0 -4 -12 3 -15 29 -15 l35 0 0
101 c0 98 -1 101 -29 130 -25 24 -38 29 -79 29 -40 0 -57 -6 -81 -26z m119
-138 c0 -24 -32 -56 -57 -56 -23 0 -44 30 -33 50 9 16 25 22 78 29 6 0 12 -10
12 -23z"/>
<path d="M10502 6764 c3 -102 4 -107 31 -130 37 -31 81 -31 112 1 l25 24 0
-24 c0 -22 5 -25 35 -25 l35 0 0 130 0 130 -35 0 -35 0 0 -81 c0 -95 -10 -119
-48 -119 -45 0 -52 16 -52 112 l0 88 -36 0 -36 0 4 -106z"/>
<path d="M13778 6699 c-43 -22 -68 -63 -68 -112 0 -63 44 -96 173 -132 44 -12
61 -22 70 -42 10 -23 8 -28 -16 -49 -43 -37 -92 -33 -133 11 -25 27 -41 35
-68 35 -30 0 -36 -4 -36 -21 0 -12 9 -36 20 -54 58 -93 276 -86 316 10 19 46
18 74 -6 112 -23 38 -54 56 -134 76 -90 24 -116 57 -76 97 31 31 86 27 120
-10 21 -23 37 -30 64 -30 28 0 36 4 36 18 0 31 -40 83 -75 98 -50 20 -142 17
-187 -7z"/>
<path d="M15380 6496 l0 -226 45 0 44 0 3 73 3 72 75 5 c84 7 122 25 147 74
21 40 20 116 -2 154 -32 54 -67 66 -197 70 l-118 4 0 -226z m221 128 c12 -11
19 -31 19 -55 0 -52 -35 -79 -101 -79 l-49 0 0 73 c0 41 3 77 8 81 12 13 103
-2 123 -20z"/>
<path d="M16520 6495 l0 -225 45 0 45 0 0 225 0 225 -45 0 -45 0 0 -225z"/>
<path d="M14193 6591 c-105 -48 -114 -232 -14 -298 42 -28 126 -31 177 -7 34
16 70 65 57 78 -13 13 -66 5 -90 -14 -29 -23 -51 -25 -87 -9 -24 11 -50 61
-39 73 4 3 55 6 115 6 l108 0 0 44 c0 112 -116 177 -227 127z m131 -73 c29
-41 21 -48 -54 -48 -59 0 -70 3 -70 17 0 51 94 75 124 31z"/>
<path d="M14573 6603 c-28 -5 -83 -56 -83 -77 0 -24 64 -21 100 6 39 29 83 17
88 -24 4 -29 -2 -32 -83 -43 -27 -4 -62 -13 -77 -21 -50 -26 -54 -118 -7 -156
34 -28 110 -24 148 8 l31 26 0 -26 c0 -24 4 -26 40 -26 l40 0 0 134 c0 119 -2
136 -20 159 -30 38 -102 55 -177 40z m91 -254 c-22 -25 -82 -22 -98 4 -17 27
5 51 60 63 l49 10 3 -29 c2 -17 -4 -37 -14 -48z"/>
<path d="M14850 6440 l0 -170 45 0 45 0 0 114 c0 112 1 115 26 135 34 27 50
26 79 -4 24 -23 25 -31 25 -135 l0 -110 46 0 46 0 -4 133 c-2 106 -7 137 -21
158 -38 56 -131 64 -174 14 -28 -32 -33 -32 -33 5 0 28 -2 30 -40 30 l-40 0 0
-170z"/>
<path d="M15853 6603 c-28 -5 -83 -56 -83 -77 0 -24 64 -21 100 6 39 29 83 17
88 -24 4 -29 -2 -32 -83 -43 -27 -4 -62 -13 -77 -21 -50 -26 -54 -118 -7 -156
34 -28 110 -24 148 8 l31 26 0 -26 c0 -24 4 -26 40 -26 l40 0 0 134 c0 119 -2
136 -20 159 -30 38 -102 55 -177 40z m91 -254 c-22 -25 -82 -22 -98 4 -17 27
5 51 60 63 l49 10 3 -29 c2 -17 -4 -37 -14 -48z"/>
<path d="M16130 6485 c0 -135 9 -169 52 -199 43 -30 114 -17 150 28 17 21 18
21 18 -11 0 -32 1 -33 45 -33 l45 0 -2 168 -3 167 -42 3 -43 3 0 -111 c0 -104
-1 -112 -25 -135 -29 -30 -58 -32 -85 -5 -18 18 -20 33 -20 135 l0 115 -45 0
-45 0 0 -125z"/>
<path d="M16770 6603 c-81 -26 -110 -100 -62 -156 15 -16 35 -24 130 -47 43
-11 55 -33 30 -58 -19 -19 -73 -14 -93 8 -21 23 -95 29 -95 7 0 -21 29 -56 60
-72 34 -18 132 -20 163 -4 44 23 67 52 67 85 0 64 -21 82 -119 103 -78 17 -96
34 -65 65 21 22 60 20 84 -4 27 -27 90 -28 90 -2 0 23 -35 57 -73 71 -29 11
-90 13 -117 4z"/>
<path d="M17110 6588 c-56 -29 -80 -74 -80 -148 0 -108 58 -170 160 -170 68 0
116 27 142 80 24 47 23 135 0 180 -22 42 -90 80 -142 80 -20 0 -56 -10 -80
-22z m116 -56 c22 -14 34 -51 34 -102 0 -41 -5 -56 -26 -76 -29 -30 -67 -27
-96 8 -26 30 -24 117 3 152 20 26 61 35 85 18z"/>
<path d="M17420 6440 l0 -170 45 0 45 0 0 114 c0 112 1 115 26 135 34 27 50
26 79 -4 24 -23 25 -31 25 -135 l0 -110 46 0 46 0 -4 133 c-2 106 -7 137 -21
158 -38 56 -131 64 -174 14 -28 -32 -33 -32 -33 5 0 28 -2 30 -40 30 l-40 0 0
-170z"/>
<path d="M4708 6579 c-49 -25 -72 -70 -65 -123 8 -55 39 -80 143 -112 68 -20
87 -31 97 -51 10 -23 8 -28 -16 -49 -46 -39 -123 -27 -146 22 -9 20 -18 24
-51 24 -46 0 -50 -11 -24 -66 48 -100 270 -100 318 0 44 94 -9 158 -161 196
-70 18 -91 52 -53 90 31 31 86 27 120 -10 21 -23 37 -30 64 -30 28 0 36 4 36
18 0 31 -40 83 -75 98 -50 20 -142 17 -187 -7z"/>
<path d="M6310 6376 l0 -226 45 0 44 0 3 73 3 72 75 5 c84 7 122 25 147 73 21
41 20 118 -2 155 -32 54 -67 66 -197 70 l-118 4 0 -226z m221 128 c12 -11 19
-31 19 -55 0 -52 -35 -79 -101 -79 l-49 0 0 73 c0 41 3 77 8 81 12 13 103 -2
123 -20z"/>
<path d="M7450 6375 l0 -225 45 0 45 0 0 225 0 225 -45 0 -45 0 0 -225z"/>
<path d="M5123 6471 c-105 -49 -114 -232 -14 -298 66 -45 195 -23 226 37 13
25 13 29 -1 34 -28 11 -56 6 -81 -14 -29 -23 -51 -25 -87 -9 -24 11 -50 61
-39 73 4 3 55 6 115 6 l108 0 0 38 c0 46 -26 99 -62 125 -39 29 -113 32 -165
8z m130 -73 c33 -39 23 -48 -53 -48 -61 0 -70 2 -70 18 0 20 24 45 50 55 23 8
53 -2 73 -25z"/>
<path d="M5490 6474 c-36 -15 -69 -50 -70 -71 0 -22 68 -15 100 9 39 29 83 17
88 -24 4 -30 8 -27 -99 -48 -75 -14 -99 -38 -99 -96 0 -64 31 -94 99 -94 39 0
56 6 80 26 l31 26 0 -26 c0 -24 4 -26 40 -26 l40 0 0 134 c0 119 -2 136 -20
159 -35 45 -125 59 -190 31z m104 -245 c-30 -34 -104 -23 -104 16 0 30 15 41
70 52 45 9 45 9 48 -20 2 -17 -4 -37 -14 -48z"/>
<path d="M5923 6480 c-12 -5 -28 -18 -35 -30 -17 -27 -28 -25 -28 5 0 23 -4
25 -40 25 l-40 0 0 -165 0 -165 45 0 45 0 0 114 c0 124 6 140 57 152 21 6 31
1 50 -20 21 -25 23 -36 23 -137 l0 -109 46 0 46 0 -4 128 c-3 80 -9 137 -18
155 -24 49 -90 70 -147 47z"/>
<path d="M6770 6474 c-36 -15 -69 -50 -70 -71 0 -22 68 -15 100 9 39 29 83 17
88 -24 4 -30 8 -27 -99 -48 -75 -14 -99 -38 -99 -96 0 -64 31 -94 99 -94 39 0
56 6 80 26 l31 26 0 -26 c0 -24 4 -26 40 -26 l40 0 0 134 c0 119 -2 136 -20
159 -35 45 -125 59 -190 31z m104 -245 c-30 -34 -104 -23 -104 16 0 30 15 41
70 52 45 9 45 9 48 -20 2 -17 -4 -37 -14 -48z"/>
<path d="M7674 6471 c-45 -21 -54 -35 -54 -90 0 -44 21 -68 71 -81 19 -5 53
-14 77 -20 34 -9 42 -15 42 -34 0 -40 -73 -51 -105 -16 -12 13 -31 20 -57 20
-42 0 -48 -12 -22 -48 24 -34 68 -52 129 -52 90 0 145 40 145 107 0 42 -27 69
-82 83 -24 6 -56 14 -72 18 -41 10 -57 39 -32 58 28 20 62 18 86 -6 27 -27 90
-28 90 -2 0 10 -10 28 -22 40 -49 45 -125 54 -194 23z"/>
<path d="M8043 6471 c-54 -25 -83 -79 -83 -153 0 -106 59 -168 160 -168 102 0
160 62 160 170 0 74 -24 119 -80 148 -54 27 -101 28 -157 3z m113 -59 c22 -14
34 -51 34 -102 0 -41 -5 -56 -25 -75 -13 -14 -33 -25 -45 -25 -11 0 -32 11
-45 25 -20 19 -25 34 -25 75 0 76 22 110 70 110 14 0 30 -4 36 -8z"/>
<path d="M8493 6480 c-12 -5 -28 -18 -35 -30 -17 -27 -28 -25 -28 5 0 23 -4
25 -40 25 l-40 0 0 -165 0 -165 45 0 45 0 0 114 c0 124 6 140 57 152 21 6 31
1 50 -20 21 -25 23 -36 23 -137 l0 -109 46 0 46 0 -4 128 c-3 80 -9 137 -18
155 -24 49 -90 70 -147 47z"/>
<path d="M7060 6360 c0 -129 9 -164 52 -194 43 -30 114 -17 150 28 17 21 18
21 18 -11 0 -32 2 -33 40 -33 l40 0 0 165 0 165 -40 0 -40 0 0 -105 c0 -99 -2
-107 -25 -130 -29 -30 -58 -32 -85 -5 -18 18 -20 33 -20 130 l0 110 -45 0 -45
0 0 -120z"/>
<path d="M10661 5722 c-13 -25 3 -49 39 -57 32 -7 40 -32 15 -41 -8 -4 -22 -1
-30 6 -22 19 -41 7 -21 -13 21 -20 55 -22 80 -4 27 20 15 50 -27 70 -51 24
-49 41 5 33 36 -6 40 -5 28 9 -18 21 -77 20 -89 -3z"/>
<path d="M11200 5670 c0 -40 4 -70 10 -70 6 0 10 11 10 25 0 20 5 25 24 25 45
0 72 50 44 78 -7 7 -29 12 -50 12 l-38 0 0 -70z m68 28 c-2 -15 -11 -24 -25
-26 -19 -3 -23 1 -23 22 0 21 5 26 26 26 21 0 25 -4 22 -22z"/>
<path d="M11560 5670 c0 -56 3 -70 15 -70 12 0 15 14 15 70 0 56 -3 70 -15 70
-12 0 -15 -14 -15 -70z"/>
<path d="M10797 5692 c-10 -10 -17 -28 -17 -40 0 -45 63 -70 91 -36 11 14 9
15 -24 9 -30 -6 -37 -4 -37 9 0 12 9 16 35 16 39 0 46 17 17 43 -24 22 -45 21
-65 -1z m53 -17 c0 -8 -9 -15 -20 -15 -20 0 -26 11 -13 23 12 13 33 7 33 -8z"/>
<path d="M10923 5703 c-22 -8 -14 -22 11 -20 36 3 36 -17 0 -23 -23 -4 -29
-10 -29 -30 0 -23 4 -25 43 -26 l42 -1 0 42 c0 56 -23 76 -67 58z m47 -62 c0
-6 -5 -13 -10 -16 -15 -9 -43 3 -35 15 8 13 45 13 45 1z"/>
<path d="M11027 5703 c-4 -3 -7 -28 -7 -55 0 -36 4 -48 15 -48 11 0 15 11 15
39 0 22 5 43 12 47 15 10 38 -24 38 -58 0 -15 5 -28 10 -28 6 0 10 20 10 44 0
53 -21 77 -51 58 -11 -7 -19 -8 -19 -2 0 11 -13 13 -23 3z"/>
<path d="M11343 5703 c-22 -8 -14 -22 11 -20 36 3 36 -17 0 -23 -23 -4 -29
-10 -29 -30 0 -23 4 -25 43 -26 l42 -1 0 42 c0 56 -23 76 -67 58z m47 -62 c0
-6 -5 -13 -10 -16 -15 -9 -43 3 -35 15 8 13 45 13 45 1z"/>
<path d="M11444 5695 c-9 -23 5 -85 21 -91 7 -3 23 -1 34 6 14 7 21 7 21 0 0
-5 5 -10 10 -10 6 0 10 25 10 56 0 66 -22 72 -30 8 -7 -56 -34 -53 -38 4 -3
42 -17 56 -28 27z"/>
<path d="M11626 5697 c-24 -17 -11 -43 25 -51 18 -3 28 -10 24 -16 -4 -7 -19
-8 -38 -4 -28 6 -30 5 -18 -10 15 -17 48 -21 69 -7 21 13 10 44 -17 51 -14 3
-27 12 -29 19 -3 10 4 12 29 7 32 -7 33 -6 15 9 -24 18 -37 19 -60 2z"/>
<path d="M11737 5692 c-21 -23 -22 -56 -1 -76 32 -32 84 -11 84 34 0 53 -50
78 -83 42z m58 -21 c8 -26 -5 -53 -24 -49 -29 6 -27 68 3 68 8 0 17 -8 21 -19z"/>
<path d="M11847 5703 c-4 -3 -7 -28 -7 -55 0 -36 4 -48 15 -48 11 0 15 11 15
39 0 22 5 43 12 47 15 10 38 -24 38 -58 0 -15 5 -28 10 -28 6 0 10 20 10 44 0
53 -21 77 -51 58 -11 -7 -19 -8 -19 -2 0 11 -13 13 -23 3z"/>
<path d="M15648 5249 c-43 -22 -68 -63 -68 -112 0 -63 44 -96 173 -132 44 -12
61 -22 70 -42 10 -23 8 -28 -16 -49 -43 -37 -92 -33 -133 11 -25 27 -41 35
-68 35 -30 0 -36 -4 -36 -21 0 -12 9 -36 20 -54 58 -93 276 -86 316 10 19 46
18 74 -6 112 -23 38 -54 56 -134 76 -90 24 -116 57 -76 97 31 31 86 27 120
-10 21 -23 37 -30 64 -30 28 0 36 4 36 18 0 31 -40 83 -75 98 -50 20 -142 17
-187 -7z"/>
<path d="M17250 5046 l0 -226 45 0 44 0 3 73 3 72 75 5 c84 7 122 25 147 74
21 40 20 116 -2 154 -32 54 -67 66 -197 70 l-118 4 0 -226z m221 128 c12 -11
19 -31 19 -55 0 -52 -35 -79 -101 -79 l-49 0 0 73 c0 41 3 77 8 81 12 13 103
-2 123 -20z"/>
<path d="M18390 5045 l0 -225 45 0 45 0 0 225 0 225 -45 0 -45 0 0 -225z"/>
<path d="M16063 5141 c-105 -48 -114 -232 -14 -298 42 -28 126 -31 177 -7 34
16 70 65 57 78 -13 13 -66 5 -90 -14 -29 -23 -51 -25 -87 -9 -24 11 -50 61
-39 73 4 3 55 6 115 6 l108 0 0 44 c0 112 -116 177 -227 127z m131 -73 c29
-41 21 -48 -54 -48 -59 0 -70 3 -70 17 0 51 94 75 124 31z"/>
<path d="M16443 5153 c-28 -5 -83 -56 -83 -77 0 -24 64 -21 100 6 39 29 83 17
88 -24 4 -29 -2 -32 -83 -43 -27 -4 -62 -13 -77 -21 -50 -26 -54 -118 -7 -156
34 -28 110 -24 148 8 l31 26 0 -26 c0 -24 4 -26 40 -26 l40 0 0 134 c0 119 -2
136 -20 159 -30 38 -102 55 -177 40z m91 -254 c-22 -25 -82 -22 -98 4 -17 27
5 51 60 63 l49 10 3 -29 c2 -17 -4 -37 -14 -48z"/>
<path d="M16720 4990 l0 -170 45 0 45 0 0 114 c0 112 1 115 26 135 34 27 50
26 79 -4 24 -23 25 -31 25 -135 l0 -110 46 0 46 0 -4 133 c-2 106 -7 137 -21
158 -38 56 -131 64 -174 14 -28 -32 -33 -32 -33 5 0 28 -2 30 -40 30 l-40 0 0
-170z"/>
<path d="M17723 5153 c-28 -5 -83 -56 -83 -77 0 -24 64 -21 100 6 39 29 83 17
88 -24 4 -29 -2 -32 -83 -43 -27 -4 -62 -13 -77 -21 -50 -26 -54 -118 -7 -156
34 -28 110 -24 148 8 l31 26 0 -26 c0 -24 4 -26 40 -26 l40 0 0 134 c0 119 -2
136 -20 159 -30 38 -102 55 -177 40z m91 -254 c-22 -25 -82 -22 -98 4 -17 27
5 51 60 63 l49 10 3 -29 c2 -17 -4 -37 -14 -48z"/>
<path d="M18000 5035 c0 -135 9 -169 52 -199 43 -30 114 -17 150 28 17 21 18
21 18 -11 0 -32 1 -33 45 -33 l45 0 -2 168 -3 167 -42 3 -43 3 0 -111 c0 -104
-1 -112 -25 -135 -29 -30 -58 -32 -85 -5 -18 18 -20 33 -20 135 l0 115 -45 0
-45 0 0 -125z"/>
<path d="M18640 5153 c-81 -26 -110 -100 -62 -156 15 -16 35 -24 130 -47 43
-11 55 -33 30 -58 -19 -19 -73 -14 -93 8 -21 23 -95 29 -95 7 0 -21 29 -56 60
-72 34 -18 132 -20 163 -4 44 23 67 52 67 85 0 64 -21 82 -119 103 -78 17 -96
34 -65 65 21 22 60 20 84 -4 27 -27 90 -28 90 -2 0 23 -35 57 -73 71 -29 11
-90 13 -117 4z"/>
<path d="M18980 5138 c-56 -29 -80 -74 -80 -148 0 -107 59 -170 157 -170 57 0
84 9 121 43 20 19 22 30 22 119 0 55 -5 108 -11 120 -14 26 -84 58 -129 58
-20 0 -56 -10 -80 -22z m116 -56 c22 -14 34 -51 34 -102 0 -41 -5 -56 -26 -76
-29 -30 -67 -27 -96 8 -26 30 -24 117 3 152 20 26 61 35 85 18z"/>
<path d="M9068 5029 c-43 -22 -68 -63 -68 -112 0 -63 44 -96 173 -132 44 -12
61 -22 70 -42 10 -23 8 -28 -16 -49 -43 -37 -92 -33 -133 11 -25 27 -41 35
-68 35 -30 0 -36 -4 -36 -21 0 -12 9 -36 20 -54 58 -93 276 -86 316 10 19 46
18 74 -6 112 -23 38 -54 56 -134 76 -90 24 -116 57 -76 97 31 31 86 27 120
-10 21 -23 37 -30 64 -30 28 0 36 4 36 18 0 31 -40 83 -75 98 -50 20 -142 17
-187 -7z"/>
<path d="M10670 4826 l0 -226 45 0 44 0 3 73 3 72 75 5 c84 7 122 25 147 74
21 40 20 116 -2 154 -32 54 -67 66 -197 70 l-118 4 0 -226z m221 128 c12 -11
19 -31 19 -55 0 -52 -35 -79 -101 -79 l-49 0 0 73 c0 41 3 77 8 81 12 13 103
-2 123 -20z"/>
<path d="M11810 4825 l0 -225 45 0 45 0 0 225 0 225 -45 0 -45 0 0 -225z"/>
<path d="M9483 4921 c-105 -48 -114 -232 -14 -298 42 -28 126 -31 177 -7 34
16 70 65 57 78 -13 13 -66 5 -90 -14 -29 -23 -51 -25 -87 -9 -24 11 -50 61
-39 73 4 3 55 6 115 6 l108 0 0 44 c0 112 -116 177 -227 127z m131 -73 c29
-41 21 -48 -54 -48 -59 0 -70 3 -70 17 0 51 94 75 124 31z"/>
<path d="M9863 4933 c-28 -5 -83 -56 -83 -77 0 -24 64 -21 100 6 39 29 83 17
88 -24 4 -29 -2 -32 -83 -43 -27 -4 -62 -13 -77 -21 -50 -26 -54 -118 -7 -156
34 -28 110 -24 148 8 l31 26 0 -26 c0 -24 4 -26 40 -26 l40 0 0 134 c0 119 -2
136 -20 159 -30 38 -102 55 -177 40z m91 -254 c-22 -25 -82 -22 -98 4 -17 27
5 51 60 63 l49 10 3 -29 c2 -17 -4 -37 -14 -48z"/>
<path d="M10140 4770 l0 -170 45 0 45 0 0 113 c0 119 2 127 37 146 31 16 41
14 68 -14 24 -23 25 -31 25 -135 l0 -110 46 0 46 0 -4 133 c-2 106 -7 137 -21
158 -38 56 -131 64 -174 14 -28 -32 -33 -32 -33 5 0 28 -2 30 -40 30 l-40 0 0
-170z"/>
<path d="M11143 4933 c-28 -5 -83 -56 -83 -77 0 -24 64 -21 100 6 39 29 83 17
88 -24 4 -29 -2 -32 -83 -43 -27 -4 -62 -13 -77 -21 -50 -26 -54 -118 -7 -156
34 -28 110 -24 148 8 l31 26 0 -26 c0 -24 4 -26 40 -26 l40 0 0 134 c0 119 -2
136 -20 159 -30 38 -102 55 -177 40z m91 -254 c-22 -25 -82 -22 -98 4 -17 27
5 51 60 63 l49 10 3 -29 c2 -17 -4 -37 -14 -48z"/>
<path d="M11420 4815 c0 -135 9 -169 52 -199 43 -30 114 -17 150 28 17 21 18
21 18 -11 0 -32 1 -33 45 -33 l45 0 -2 168 -3 167 -42 3 -43 3 0 -111 c0 -104
-1 -112 -25 -135 -29 -30 -58 -32 -85 -5 -18 18 -20 33 -20 135 l0 115 -45 0
-45 0 0 -125z"/>
<path d="M12060 4933 c-81 -26 -110 -100 -62 -156 15 -16 35 -24 130 -47 43
-11 55 -33 30 -58 -19 -19 -73 -14 -93 8 -21 23 -95 29 -95 7 0 -21 29 -56 60
-72 34 -18 132 -20 163 -4 44 23 67 52 67 85 0 64 -21 82 -119 103 -78 17 -96
34 -65 65 21 22 60 20 84 -4 27 -27 90 -28 90 -2 0 23 -35 57 -73 71 -29 11
-90 13 -117 4z"/>
<path d="M12400 4918 c-56 -29 -80 -74 -80 -148 0 -108 58 -170 160 -170 68 0
116 27 142 80 24 47 23 135 0 180 -22 42 -90 80 -142 80 -20 0 -56 -10 -80
-22z m116 -56 c22 -14 34 -51 34 -102 0 -41 -5 -56 -26 -76 -29 -30 -67 -27
-96 8 -26 30 -24 117 3 152 20 26 61 35 85 18z"/>
<path d="M12710 4770 l0 -170 45 0 45 0 0 114 c0 112 1 115 26 135 34 27 50
26 79 -4 24 -23 25 -31 25 -135 l0 -110 46 0 46 0 -4 133 c-2 106 -7 137 -21
158 -38 56 -131 64 -174 14 -28 -32 -33 -32 -33 5 0 28 -2 30 -40 30 l-40 0 0
-170z"/>
<path d="M1921 4512 c-13 -25 3 -49 39 -57 32 -7 40 -32 15 -41 -8 -4 -22 -1
-30 6 -22 19 -41 7 -21 -13 21 -20 55 -22 80 -4 27 20 15 50 -27 70 -51 24
-49 41 5 33 36 -6 40 -5 28 9 -18 21 -77 20 -89 -3z"/>
<path d="M2460 4460 c0 -40 4 -70 10 -70 6 0 10 11 10 25 0 20 5 25 24 25 45
0 72 50 44 78 -7 7 -29 12 -50 12 l-38 0 0 -70z m68 28 c-2 -15 -11 -24 -25
-26 -19 -3 -23 1 -23 22 0 21 5 26 26 26 21 0 25 -4 22 -22z"/>
<path d="M2820 4460 c0 -56 3 -70 15 -70 12 0 15 14 15 70 0 56 -3 70 -15 70
-12 0 -15 -14 -15 -70z"/>
<path d="M2057 4482 c-10 -10 -17 -28 -17 -40 0 -45 63 -70 91 -36 11 14 9 15
-24 9 -30 -6 -37 -4 -37 9 0 12 9 16 35 16 39 0 46 17 17 43 -24 22 -45 21
-65 -1z m53 -17 c0 -8 -9 -15 -20 -15 -20 0 -26 11 -13 23 12 13 33 7 33 -8z"/>
<path d="M2183 4493 c-22 -8 -14 -22 11 -20 36 3 36 -17 0 -23 -23 -4 -29 -10
-29 -30 0 -23 4 -25 43 -26 l42 -1 0 42 c0 56 -23 76 -67 58z m47 -62 c0 -6
-5 -13 -10 -16 -15 -9 -43 3 -35 15 8 13 45 13 45 1z"/>
<path d="M2287 4493 c-4 -3 -7 -28 -7 -55 0 -36 4 -48 15 -48 11 0 15 11 15
39 0 22 5 43 12 47 15 10 38 -24 38 -58 0 -15 5 -28 10 -28 6 0 10 20 10 44 0
53 -21 77 -51 58 -11 -7 -19 -8 -19 -2 0 11 -13 13 -23 3z"/>
<path d="M2603 4493 c-22 -8 -14 -22 11 -20 36 3 36 -17 0 -23 -23 -4 -29 -10
-29 -30 0 -23 4 -25 43 -26 l42 -1 0 42 c0 56 -23 76 -67 58z m47 -62 c0 -6
-5 -13 -10 -16 -15 -9 -43 3 -35 15 8 13 45 13 45 1z"/>
<path d="M2704 4485 c-9 -23 5 -85 21 -91 7 -3 23 -1 34 6 14 7 21 7 21 0 0
-5 5 -10 10 -10 6 0 10 25 10 56 0 66 -22 72 -30 8 -7 -56 -34 -53 -38 4 -3
42 -17 56 -28 27z"/>
<path d="M2886 4487 c-24 -17 -11 -43 25 -51 18 -3 28 -10 24 -16 -4 -7 -19
-8 -38 -4 -28 6 -30 5 -18 -10 15 -17 48 -21 69 -7 21 13 10 44 -17 51 -14 3
-27 12 -29 19 -3 10 4 12 29 7 32 -7 33 -6 15 9 -24 18 -37 19 -60 2z"/>
<path d="M2997 4482 c-21 -23 -22 -56 -1 -76 32 -32 84 -11 84 34 0 53 -50 78
-83 42z m58 -21 c8 -26 -5 -53 -24 -49 -29 6 -27 68 3 68 8 0 17 -8 21 -19z"/>
<path d="M3107 4493 c-4 -3 -7 -28 -7 -55 0 -36 4 -48 15 -48 11 0 15 11 15
39 0 22 5 43 12 47 15 10 38 -24 38 -58 0 -15 5 -28 10 -28 6 0 10 20 10 44 0
53 -21 77 -51 58 -11 -7 -19 -8 -19 -2 0 11 -13 13 -23 3z"/>
<path d="M4516 4439 c-48 -38 -27 -84 50 -109 37 -11 49 -20 49 -35 0 -16 -8
-21 -38 -23 -26 -2 -39 1 -43 12 -8 20 -44 21 -44 2 0 -36 58 -63 112 -52 44
9 58 24 58 61 0 39 -13 51 -71 68 -32 9 -45 19 -47 34 -4 29 31 40 63 19 48
-31 73 -14 35 24 -27 27 -89 27 -124 -1z"/>
<path d="M5350 4345 l0 -115 25 0 c23 0 25 4 25 40 l0 40 40 0 c51 0 80 27 80
74 0 51 -36 76 -111 76 l-59 0 0 -115z m108 69 c12 -8 22 -21 22 -29 0 -21
-29 -45 -56 -45 -22 0 -24 4 -24 45 0 50 16 58 58 29z"/>
<path d="M5950 4345 c0 -108 1 -115 20 -115 19 0 20 7 20 115 0 108 -1 115
-20 115 -19 0 -20 -7 -20 -115z"/>
<path d="M4720 4380 c-31 -31 -28 -102 6 -129 32 -25 71 -27 102 -5 41 28 15
49 -28 22 -23 -15 -53 -2 -58 26 -3 13 6 16 57 16 l61 0 -6 28 c-4 15 -14 35
-22 45 -21 24 -86 23 -112 -3z m88 -32 c3 -15 -4 -18 -32 -18 -34 0 -47 15
-29 34 13 13 58 1 61 -16z"/>
<path d="M4904 4379 l-19 -21 53 7 c49 6 54 5 50 -11 -2 -10 -12 -20 -23 -22
-51 -7 -65 -14 -75 -33 -25 -45 51 -94 88 -57 9 9 12 9 12 0 0 -7 9 -12 20
-12 18 0 20 7 20 73 0 43 -5 78 -12 85 -21 21 -92 15 -114 -9z m84 -91 c-4
-31 -58 -40 -58 -9 0 20 12 29 43 30 14 1 18 -5 15 -21z"/>
<path d="M5080 4315 c0 -78 2 -85 20 -85 17 0 20 7 20 44 0 65 15 98 43 94 20
-3 22 -9 25 -70 3 -65 4 -68 27 -68 24 0 25 3 25 63 0 73 -18 107 -57 107 -15
0 -35 -7 -45 -17 -17 -15 -18 -15 -18 0 0 10 -8 17 -20 17 -18 0 -20 -7 -20
-85z"/>
<path d="M5574 4379 l-19 -21 53 7 c49 6 54 5 50 -11 -2 -10 -12 -20 -23 -22
-51 -7 -65 -14 -75 -33 -25 -45 51 -94 88 -57 9 9 12 9 12 0 0 -7 9 -12 20
-12 18 0 20 7 20 73 0 43 -5 78 -12 85 -21 21 -92 15 -114 -9z m84 -91 c-4
-31 -58 -40 -58 -9 0 20 12 29 43 30 14 1 18 -5 15 -21z"/>
<path d="M5750 4335 c0 -52 4 -69 20 -85 24 -24 53 -26 74 -5 8 8 17 15 20 15
3 0 6 -7 6 -15 0 -8 9 -15 20 -15 18 0 20 7 20 85 0 84 0 85 -25 85 -23 0 -24
-4 -27 -62 -3 -53 -6 -63 -22 -66 -28 -6 -46 25 -46 80 0 41 -3 48 -20 48 -18
0 -20 -7 -20 -65z"/>
<path d="M6056 4384 c-34 -33 -16 -66 43 -81 19 -5 36 -14 39 -21 6 -18 -28
-27 -49 -14 -26 16 -49 15 -49 -3 0 -49 130 -43 143 7 6 22 -24 58 -49 58 -8
0 -25 5 -36 11 -21 11 -21 12 -3 25 13 10 23 10 37 3 10 -6 26 -9 35 -7 15 3
15 5 -1 21 -22 22 -89 23 -110 1z"/>
<path d="M6240 4380 c-31 -31 -28 -102 6 -129 82 -64 178 40 113 123 -26 33
-88 37 -119 6z m90 -31 c25 -47 -19 -109 -55 -79 -18 15 -20 71 -3 88 18 18
46 14 58 -9z"/>
<path d="M6420 4315 c0 -78 2 -85 20 -85 17 0 20 7 20 44 0 65 15 98 43 94 20
-3 22 -9 25 -70 3 -65 4 -68 27 -68 24 0 25 3 25 63 0 73 -18 107 -57 107 -15
0 -35 -7 -45 -17 -17 -15 -18 -15 -18 0 0 10 -8 17 -20 17 -18 0 -20 -7 -20
-85z"/>
<path d="M5728 3989 c-49 -25 -72 -70 -65 -123 8 -55 39 -80 143 -112 68 -20
87 -31 97 -51 10 -23 8 -28 -16 -49 -46 -39 -123 -27 -146 22 -9 20 -18 24
-51 24 -46 0 -50 -11 -24 -66 47 -99 270 -100 317 -1 45 95 -7 159 -160 197
-70 18 -91 52 -53 90 31 31 86 27 120 -10 21 -23 37 -30 64 -30 28 0 36 4 36
18 0 31 -40 83 -75 98 -50 20 -142 17 -187 -7z"/>
<path d="M7330 3786 l0 -226 45 0 45 0 0 75 0 75 63 0 c121 1 179 51 179 153
-1 55 -17 85 -66 121 -23 18 -45 22 -147 25 l-119 3 0 -226z m221 128 c19 -17
26 -78 11 -100 -14 -21 -51 -34 -96 -34 l-46 0 0 73 c0 41 3 77 8 81 12 13
103 -2 123 -20z"/>
<path d="M8470 3785 l0 -225 45 0 45 0 0 225 0 225 -45 0 -45 0 0 -225z"/>
<path d="M6145 3882 c-107 -50 -116 -232 -16 -299 66 -45 195 -23 226 37 13
25 13 29 -1 34 -28 11 -56 6 -81 -14 -29 -22 -70 -26 -94 -7 -22 17 -41 55
-34 67 3 6 55 10 116 10 l109 0 0 38 c0 46 -26 99 -62 125 -38 28 -113 32
-163 9z m128 -74 c33 -39 23 -48 -52 -48 -39 0 -72 4 -75 8 -8 13 23 52 48 62
28 11 57 3 79 -22z"/>
<path d="M6510 3884 c-36 -15 -69 -50 -70 -71 0 -22 68 -15 100 9 39 29 83 17
88 -24 4 -30 9 -27 -98 -48 -73 -14 -100 -41 -100 -97 0 -63 32 -93 99 -93 39
0 56 6 80 26 l31 26 0 -26 c0 -24 4 -26 40 -26 l40 0 0 134 c0 119 -2 136 -20
159 -35 45 -125 59 -190 31z m104 -245 c-30 -34 -104 -23 -104 16 0 30 15 41
70 52 45 9 45 9 48 -20 2 -17 -4 -37 -14 -48z"/>
<path d="M6943 3890 c-12 -5 -28 -18 -35 -30 -17 -27 -28 -25 -28 5 0 23 -4
25 -40 25 l-40 0 0 -165 0 -165 45 0 45 0 0 113 c0 125 7 143 56 153 25 5 36
1 53 -17 19 -20 21 -34 21 -136 l0 -113 46 0 46 0 -4 128 c-3 80 -9 137 -18
155 -24 49 -90 70 -147 47z"/>
<path d="M7790 3884 c-36 -15 -69 -50 -70 -71 0 -22 68 -15 100 9 39 29 83 17
88 -24 4 -30 9 -27 -98 -48 -73 -14 -100 -41 -100 -97 0 -63 32 -93 99 -93 39
0 56 6 80 26 l31 26 0 -26 c0 -24 4 -26 40 -26 l40 0 0 134 c0 119 -2 136 -20
159 -35 45 -125 59 -190 31z m104 -245 c-30 -34 -104 -23 -104 16 0 30 15 41
70 52 45 9 45 9 48 -20 2 -17 -4 -37 -14 -48z"/>
<path d="M8694 3881 c-46 -21 -54 -35 -54 -91 0 -46 29 -74 87 -84 78 -14 103
-26 103 -51 0 -39 -73 -50 -105 -15 -12 13 -31 20 -57 20 -42 0 -48 -12 -22
-48 24 -34 68 -52 129 -52 90 0 145 40 145 107 0 42 -27 69 -82 83 -24 6 -56
14 -72 18 -41 10 -57 39 -32 58 28 20 62 18 86 -6 27 -27 90 -28 90 -2 0 10
-10 28 -22 40 -49 45 -125 54 -194 23z"/>
<path d="M9063 3881 c-54 -25 -83 -79 -83 -153 0 -106 59 -168 160 -168 101 0
160 62 160 168 0 102 -64 172 -160 172 -19 0 -54 -9 -77 -19z m113 -59 c22
-14 34 -51 34 -102 0 -41 -5 -56 -25 -75 -13 -14 -33 -25 -45 -25 -11 0 -32
11 -45 25 -20 19 -25 34 -25 75 0 76 22 110 70 110 14 0 30 -4 36 -8z"/>
<path d="M9513 3890 c-12 -5 -28 -18 -35 -30 -17 -27 -28 -25 -28 5 0 23 -4
25 -40 25 l-40 0 0 -165 0 -165 45 0 45 0 0 113 c0 125 7 143 56 153 25 5 36
1 53 -17 19 -20 21 -34 21 -136 l0 -113 46 0 46 0 -4 128 c-3 80 -9 137 -18
155 -24 49 -90 70 -147 47z"/>
<path d="M8080 3775 c0 -126 12 -171 51 -199 44 -30 115 -17 151 28 17 21 18
21 18 -11 0 -32 2 -33 40 -33 l40 0 0 165 0 165 -40 0 -40 0 0 -105 c0 -99 -2
-107 -25 -130 -29 -30 -58 -32 -85 -5 -18 18 -20 33 -20 130 l0 110 -45 0 -45
0 0 -115z"/>
<path d="M13962 3657 c-41 -43 -20 -83 54 -107 37 -11 49 -20 49 -35 0 -16 -8
-21 -38 -23 -26 -2 -39 1 -43 12 -8 20 -44 21 -44 2 0 -36 58 -63 112 -52 44
9 58 24 58 61 0 39 -13 51 -71 68 -32 9 -45 19 -47 34 -4 29 31 40 63 19 48
-31 73 -14 35 24 -29 29 -99 28 -128 -3z"/>
<path d="M14800 3565 l0 -115 25 0 c23 0 25 4 25 40 l0 40 40 0 c51 0 80 27
80 74 0 51 -36 76 -111 76 l-59 0 0 -115z m108 69 c12 -8 22 -21 22 -29 0 -21
-29 -45 -56 -45 -22 0 -24 4 -24 45 0 50 16 58 58 29z"/>
<path d="M15400 3565 c0 -108 1 -115 20 -115 19 0 20 7 20 115 0 108 -1 115
-20 115 -19 0 -20 -7 -20 -115z"/>
<path d="M14170 3600 c-29 -29 -28 -99 3 -128 27 -26 73 -29 105 -6 41 28 15
49 -28 22 -23 -15 -53 -2 -58 26 -3 13 6 16 57 16 l61 0 -6 28 c-4 15 -14 35
-22 45 -21 24 -86 23 -112 -3z m88 -32 c3 -15 -4 -18 -32 -18 -34 0 -47 15
-29 34 13 13 58 1 61 -16z"/>
<path d="M14356 3601 c-16 -17 -16 -19 4 -24 11 -3 23 -1 26 4 3 5 16 9 30 9
19 0 25 -5 22 -17 -2 -10 -12 -19 -23 -21 -51 -7 -65 -14 -75 -33 -25 -45 51
-94 88 -57 9 9 12 9 12 0 0 -7 9 -12 20 -12 18 0 20 7 20 73 0 43 -5 78 -12
85 -19 19 -92 15 -112 -7z m82 -93 c-4 -31 -58 -40 -58 -9 0 20 12 29 43 30
14 1 18 -5 15 -21z"/>
<path d="M14530 3535 c0 -78 2 -85 20 -85 17 0 20 7 20 44 0 65 15 98 43 94
20 -3 22 -9 25 -70 3 -65 4 -68 27 -68 24 0 25 3 25 63 0 73 -18 107 -57 107
-15 0 -35 -7 -45 -17 -17 -15 -18 -15 -18 0 0 10 -8 17 -20 17 -18 0 -20 -7
-20 -85z"/>
<path d="M15026 3601 c-16 -17 -16 -19 4 -24 11 -3 23 -1 26 4 3 5 16 9 30 9
19 0 25 -5 22 -17 -2 -10 -12 -19 -23 -21 -51 -7 -65 -14 -75 -33 -25 -45 51
-94 88 -57 9 9 12 9 12 0 0 -7 9 -12 20 -12 18 0 20 7 20 73 0 43 -5 78 -12
85 -19 19 -92 15 -112 -7z m82 -93 c-4 -31 -58 -40 -58 -9 0 20 12 29 43 30
14 1 18 -5 15 -21z"/>
<path d="M15200 3555 c0 -52 4 -69 20 -85 24 -24 53 -26 74 -5 8 8 17 15 20
15 3 0 6 -7 6 -15 0 -8 9 -15 20 -15 18 0 20 7 20 85 0 84 0 85 -25 85 -23 0
-24 -4 -27 -62 -3 -53 -6 -63 -22 -66 -28 -6 -46 25 -46 80 0 41 -3 48 -20 48
-18 0 -20 -7 -20 -65z"/>
<path d="M15508 3609 c-21 -12 -24 -52 -5 -67 6 -6 27 -14 46 -19 19 -5 36
-14 39 -21 6 -18 -28 -27 -49 -14 -26 16 -49 15 -49 -3 0 -32 89 -49 122 -22
41 33 26 69 -37 89 -52 17 -46 34 10 31 50 -3 52 -1 29 21 -17 18 -80 21 -106
5z"/>
<path d="M15690 3600 c-29 -29 -28 -99 3 -128 76 -72 181 39 116 122 -26 33
-88 37 -119 6z m90 -31 c25 -47 -19 -109 -55 -79 -18 15 -20 71 -3 88 18 18
46 14 58 -9z"/>
<path d="M15870 3535 c0 -78 2 -85 20 -85 17 0 20 7 20 44 0 65 15 98 43 94
20 -3 22 -9 25 -70 3 -65 4 -68 27 -68 24 0 25 3 25 63 0 73 -18 107 -57 107
-15 0 -35 -7 -45 -17 -17 -15 -18 -15 -18 0 0 10 -8 17 -20 17 -18 0 -20 -7
-20 -85z"/>
<path d="M1038 3379 c-43 -22 -68 -63 -68 -112 0 -63 44 -96 173 -132 44 -12
61 -22 70 -42 10 -23 8 -28 -16 -49 -18 -15 -41 -24 -61 -24 -36 0 -86 33 -86
56 0 10 -13 14 -45 14 -39 0 -45 -3 -45 -21 0 -12 9 -36 20 -54 58 -93 276
-86 316 10 19 46 18 74 -6 112 -23 38 -54 56 -134 76 -90 24 -116 57 -76 97
31 31 86 27 120 -10 21 -23 37 -30 64 -30 28 0 36 4 36 18 0 31 -40 83 -75 98
-50 20 -142 17 -187 -7z"/>
<path d="M2640 3176 l0 -226 45 0 44 0 3 73 3 72 75 5 c84 7 122 25 147 74 21
40 20 116 -2 154 -32 54 -67 66 -197 70 l-118 4 0 -226z m221 128 c12 -11 19
-31 19 -55 0 -52 -35 -79 -101 -79 l-49 0 0 73 c0 41 3 77 8 81 12 13 103 -2
123 -20z"/>
<path d="M3780 3175 l0 -225 45 0 45 0 0 225 0 225 -45 0 -45 0 0 -225z"/>
<path d="M1453 3271 c-105 -48 -114 -232 -14 -298 42 -28 126 -31 177 -7 34
16 70 65 57 78 -13 13 -66 5 -90 -14 -29 -23 -51 -25 -87 -9 -24 11 -50 61
-39 73 4 3 55 6 115 6 l108 0 0 44 c0 112 -116 177 -227 127z m131 -73 c29
-41 21 -48 -54 -48 -59 0 -70 3 -70 17 0 51 94 75 124 31z"/>
<path d="M1833 3283 c-28 -5 -83 -56 -83 -77 0 -24 64 -21 100 6 39 29 83 17
88 -24 4 -29 -2 -32 -83 -43 -27 -4 -62 -13 -77 -21 -50 -26 -54 -118 -7 -156
34 -28 110 -24 148 8 l31 26 0 -26 c0 -24 4 -26 40 -26 l40 0 0 134 c0 119 -2
136 -20 159 -30 38 -102 55 -177 40z m91 -254 c-22 -25 -82 -22 -98 4 -17 27
5 51 60 63 l49 10 3 -29 c2 -17 -4 -37 -14 -48z"/>
<path d="M2110 3120 l0 -170 45 0 45 0 0 114 c0 112 1 115 26 135 34 27 50 26
79 -4 24 -23 25 -31 25 -135 l0 -110 46 0 46 0 -4 133 c-2 106 -7 137 -21 158
-38 56 -131 64 -174 14 -28 -32 -33 -32 -33 5 0 28 -2 30 -40 30 l-40 0 0
-170z"/>
<path d="M3113 3283 c-28 -5 -83 -56 -83 -77 0 -24 64 -21 100 6 39 29 83 17
88 -24 4 -29 -2 -32 -83 -43 -27 -4 -62 -13 -77 -21 -50 -26 -54 -118 -7 -156
34 -28 110 -24 148 8 l31 26 0 -26 c0 -24 4 -26 40 -26 l40 0 0 134 c0 119 -2
136 -20 159 -30 38 -102 55 -177 40z m91 -254 c-22 -25 -82 -22 -98 4 -17 27
5 51 60 63 l49 10 3 -29 c2 -17 -4 -37 -14 -48z"/>
<path d="M3390 3165 c0 -135 9 -169 52 -199 43 -30 114 -17 150 28 17 21 18
21 18 -11 0 -32 1 -33 45 -33 l45 0 -2 168 -3 167 -42 3 -43 3 0 -111 c0 -104
-1 -112 -25 -135 -29 -30 -58 -32 -85 -5 -18 18 -20 33 -20 135 l0 115 -45 0
-45 0 0 -125z"/>
<path d="M4030 3283 c-81 -26 -110 -100 -62 -156 15 -16 35 -24 130 -47 43
-11 55 -33 30 -58 -19 -19 -73 -14 -93 8 -21 23 -95 29 -95 7 0 -21 29 -56 60
-72 34 -18 132 -20 163 -4 44 23 67 52 67 85 0 64 -21 82 -119 103 -78 17 -96
34 -65 65 21 22 60 20 84 -4 27 -27 90 -28 90 -2 0 23 -35 57 -73 71 -29 11
-90 13 -117 4z"/>
<path d="M4370 3268 c-56 -29 -80 -74 -80 -148 0 -108 58 -170 160 -170 68 0
116 27 142 80 24 47 23 135 0 180 -22 42 -90 80 -142 80 -20 0 -56 -10 -80
-22z m116 -56 c22 -14 34 -51 34 -102 0 -41 -5 -56 -26 -76 -29 -30 -67 -27
-96 8 -26 30 -24 117 3 152 20 26 61 35 85 18z"/>
<path d="M4680 3120 l0 -170 45 0 45 0 0 114 c0 112 1 115 26 135 34 27 50 26
79 -4 24 -23 25 -31 25 -135 l0 -110 46 0 46 0 -4 133 c-2 106 -7 137 -21 158
-38 56 -131 64 -174 14 -28 -32 -33 -32 -33 5 0 28 -2 30 -40 30 l-40 0 0
-170z"/>
<path d="M9508 3149 c-43 -22 -68 -63 -68 -112 0 -63 44 -96 173 -132 44 -12
61 -22 70 -42 10 -23 8 -28 -16 -49 -43 -37 -92 -33 -133 11 -25 27 -41 35
-68 35 -30 0 -36 -4 -36 -21 0 -12 9 -36 20 -54 58 -93 276 -86 316 10 19 46
18 74 -6 112 -23 38 -54 56 -134 76 -90 24 -116 57 -76 97 31 31 86 27 120
-10 21 -23 37 -30 64 -30 28 0 36 4 36 18 0 31 -40 83 -75 98 -50 20 -142 17
-187 -7z"/>
<path d="M11110 2946 l0 -226 45 0 44 0 3 73 3 72 75 5 c84 7 122 25 147 74
21 40 20 116 -2 154 -32 54 -67 66 -197 70 l-118 4 0 -226z m221 128 c12 -11
19 -31 19 -55 0 -52 -35 -79 -101 -79 l-49 0 0 73 c0 41 3 77 8 81 12 13 103
-2 123 -20z"/>
<path d="M12250 2945 l0 -225 45 0 45 0 0 225 0 225 -45 0 -45 0 0 -225z"/>
<path d="M15402 3107 c-41 -43 -20 -83 54 -107 37 -11 49 -20 49 -35 0 -16 -8
-21 -38 -23 -26 -2 -39 1 -43 12 -8 20 -44 21 -44 2 0 -36 58 -63 112 -52 44
9 58 24 58 61 0 39 -13 51 -71 68 -32 9 -45 19 -47 34 -4 29 31 40 63 19 48
-31 73 -14 35 24 -29 29 -99 28 -128 -3z"/>
<path d="M16240 3015 l0 -115 25 0 c23 0 25 4 25 40 l0 40 40 0 c51 0 80 27
80 74 0 51 -36 76 -111 76 l-59 0 0 -115z m108 69 c12 -8 22 -21 22 -29 0 -21
-29 -45 -56 -45 -22 0 -24 4 -24 45 0 50 16 58 58 29z"/>
<path d="M16840 3015 c0 -108 1 -115 20 -115 19 0 20 7 20 115 0 108 -1 115
-20 115 -19 0 -20 -7 -20 -115z"/>
<path d="M15610 3050 c-29 -29 -28 -99 3 -128 27 -26 73 -29 105 -6 41 28 15
49 -28 22 -23 -15 -53 -2 -58 26 -3 13 6 16 57 16 l61 0 -6 28 c-4 15 -14 35
-22 45 -21 24 -86 23 -112 -3z m88 -32 c3 -15 -4 -18 -32 -18 -34 0 -47 15
-29 34 13 13 58 1 61 -16z"/>
<path d="M15796 3051 c-16 -17 -16 -19 4 -24 11 -3 23 -1 26 4 3 5 16 9 30 9
19 0 25 -5 22 -17 -2 -10 -12 -19 -23 -21 -51 -7 -65 -14 -75 -33 -25 -45 51
-94 88 -57 9 9 12 9 12 0 0 -7 9 -12 20 -12 18 0 20 7 20 73 0 43 -5 78 -12
85 -19 19 -92 15 -112 -7z m82 -93 c-4 -31 -58 -40 -58 -9 0 20 12 29 43 30
14 1 18 -5 15 -21z"/>
<path d="M15970 2985 c0 -78 2 -85 20 -85 17 0 20 7 20 44 0 65 15 98 43 94
20 -3 22 -9 25 -70 3 -65 4 -68 27 -68 24 0 25 3 25 63 0 73 -18 107 -57 107
-15 0 -35 -7 -45 -17 -17 -15 -18 -15 -18 0 0 10 -8 17 -20 17 -18 0 -20 -7
-20 -85z"/>
<path d="M16466 3051 c-16 -17 -16 -19 4 -24 11 -3 23 -1 26 4 3 5 16 9 30 9
19 0 25 -5 22 -17 -2 -10 -12 -19 -23 -21 -51 -7 -65 -14 -75 -33 -25 -45 51
-94 88 -57 9 9 12 9 12 0 0 -7 9 -12 20 -12 18 0 20 7 20 73 0 43 -5 78 -12
85 -19 19 -92 15 -112 -7z m82 -93 c-4 -31 -58 -40 -58 -9 0 20 12 29 43 30
14 1 18 -5 15 -21z"/>
<path d="M16640 3005 c0 -52 4 -69 20 -85 24 -24 53 -26 74 -5 8 8 17 15 20
15 3 0 6 -7 6 -15 0 -8 9 -15 20 -15 18 0 20 7 20 85 0 84 0 85 -25 85 -23 0
-24 -4 -27 -62 -3 -53 -6 -63 -22 -66 -28 -6 -46 25 -46 80 0 41 -3 48 -20 48
-18 0 -20 -7 -20 -65z"/>
<path d="M16948 3059 c-21 -12 -24 -52 -5 -67 6 -6 27 -14 46 -19 19 -5 36
-14 39 -21 6 -18 -28 -27 -49 -14 -26 16 -49 15 -49 -3 0 -32 89 -49 122 -22
41 33 26 69 -37 89 -52 17 -46 34 10 31 50 -3 52 -1 29 21 -17 18 -80 21 -106
5z"/>
<path d="M17130 3050 c-31 -31 -28 -102 6 -129 82 -64 178 40 113 123 -26 33
-88 37 -119 6z m90 -31 c25 -47 -19 -109 -55 -79 -18 15 -20 71 -3 88 18 18
46 14 58 -9z"/>
<path d="M17310 2985 c0 -78 2 -85 20 -85 17 0 20 7 20 44 0 65 15 98 43 94
20 -3 22 -9 25 -70 3 -65 4 -68 27 -68 24 0 25 3 25 63 0 73 -18 107 -57 107
-15 0 -35 -7 -45 -17 -17 -15 -18 -15 -18 0 0 10 -8 17 -20 17 -18 0 -20 -7
-20 -85z"/>
<path d="M9923 3041 c-105 -48 -114 -232 -14 -298 42 -28 126 -31 177 -7 34
16 70 65 57 78 -13 13 -66 5 -90 -14 -29 -23 -51 -25 -87 -9 -24 11 -50 61
-39 73 4 3 55 6 115 6 l108 0 0 44 c0 112 -116 177 -227 127z m131 -73 c29
-41 21 -48 -54 -48 -59 0 -70 3 -70 17 0 51 94 75 124 31z"/>
<path d="M10303 3053 c-28 -5 -83 -56 -83 -77 0 -24 64 -21 100 6 39 29 83 17
88 -24 4 -29 -2 -32 -83 -43 -27 -4 -62 -13 -77 -21 -50 -26 -54 -118 -7 -156
34 -28 110 -24 148 8 l31 26 0 -26 c0 -24 4 -26 40 -26 l40 0 0 134 c0 119 -2
136 -20 159 -30 38 -102 55 -177 40z m91 -254 c-22 -25 -82 -22 -98 4 -17 27
5 51 60 63 l49 10 3 -29 c2 -17 -4 -37 -14 -48z"/>
<path d="M10580 2890 l0 -170 45 0 45 0 0 114 c0 112 1 115 26 135 34 27 50
26 79 -4 24 -23 25 -31 25 -135 l0 -110 46 0 46 0 -4 133 c-2 106 -7 137 -21
158 -38 56 -131 64 -174 14 -28 -32 -33 -32 -33 5 0 28 -2 30 -40 30 l-40 0 0
-170z"/>
<path d="M11583 3053 c-28 -5 -83 -56 -83 -77 0 -24 64 -21 100 6 39 29 83 17
88 -24 4 -29 -2 -32 -83 -43 -27 -4 -62 -13 -77 -21 -50 -26 -54 -118 -7 -156
34 -28 110 -24 148 8 l31 26 0 -26 c0 -24 4 -26 40 -26 l40 0 0 134 c0 119 -2
136 -20 159 -30 38 -102 55 -177 40z m91 -254 c-22 -25 -82 -22 -98 4 -17 27
5 51 60 63 l49 10 3 -29 c2 -17 -4 -37 -14 -48z"/>
<path d="M11860 2935 c0 -135 9 -169 52 -199 43 -30 114 -17 150 28 17 21 18
21 18 -11 0 -32 1 -33 45 -33 l45 0 -2 168 -3 167 -42 3 -43 3 0 -111 c0 -104
-1 -112 -25 -135 -29 -30 -58 -32 -85 -5 -18 18 -20 33 -20 135 l0 115 -45 0
-45 0 0 -125z"/>
<path d="M12500 3053 c-81 -26 -110 -100 -62 -156 15 -16 35 -24 130 -47 43
-11 55 -33 30 -58 -19 -19 -73 -14 -93 8 -21 23 -95 29 -95 7 0 -21 29 -56 60
-72 34 -18 132 -20 163 -4 44 23 67 52 67 85 0 64 -21 82 -119 103 -78 17 -96
34 -65 65 21 22 60 20 84 -4 27 -27 90 -28 90 -2 0 23 -35 57 -73 71 -29 11
-90 13 -117 4z"/>
<path d="M12840 3038 c-56 -29 -80 -74 -80 -148 0 -108 58 -170 160 -170 68 0
116 27 142 80 24 47 23 135 0 180 -22 42 -90 80 -142 80 -20 0 -56 -10 -80
-22z m116 -56 c22 -14 34 -51 34 -102 0 -41 -5 -56 -26 -76 -29 -30 -67 -27
-96 8 -26 30 -24 117 3 152 20 26 61 35 85 18z"/>
<path d="M13150 2890 l0 -170 45 0 45 0 0 114 c0 112 1 115 26 135 34 27 50
26 79 -4 24 -23 25 -31 25 -135 l0 -110 46 0 46 0 -4 133 c-2 106 -7 137 -21
158 -38 56 -131 64 -174 14 -28 -32 -33 -32 -33 5 0 28 -2 30 -40 30 l-40 0 0
-170z"/>
<path d="M12978 2479 c-43 -22 -68 -63 -68 -112 0 -63 44 -96 173 -132 44 -12
61 -22 70 -42 10 -23 8 -28 -16 -49 -43 -37 -92 -33 -133 11 -25 27 -41 35
-68 35 -30 0 -36 -4 -36 -21 0 -12 9 -36 20 -54 58 -93 276 -86 316 10 19 46
18 74 -6 112 -23 38 -54 56 -134 76 -90 24 -116 57 -76 97 31 31 86 27 120
-10 21 -23 37 -30 64 -30 28 0 36 4 36 18 0 31 -40 83 -75 98 -50 20 -142 17
-187 -7z"/>
<path d="M14580 2276 l0 -226 45 0 44 0 3 73 3 72 75 5 c84 7 122 25 147 74
21 40 20 116 -2 154 -32 54 -67 66 -197 70 l-118 4 0 -226z m221 128 c12 -11
19 -31 19 -55 0 -52 -35 -79 -101 -79 l-49 0 0 73 c0 41 3 77 8 81 12 13 103
-2 123 -20z"/>
<path d="M15720 2275 l0 -225 45 0 45 0 0 225 0 225 -45 0 -45 0 0 -225z"/>
<path d="M13388 2369 c-101 -53 -106 -232 -9 -296 42 -28 126 -31 177 -7 34
16 70 65 57 78 -13 13 -66 5 -90 -14 -29 -23 -51 -25 -87 -9 -24 11 -50 61
-39 73 4 3 55 6 115 6 l108 0 0 44 c0 113 -127 181 -232 125z m136 -71 c29
-41 21 -48 -54 -48 -59 0 -70 3 -70 17 0 51 94 75 124 31z"/>
<path d="M13773 2383 c-28 -5 -83 -56 -83 -77 0 -24 64 -21 100 6 39 29 83 17
88 -24 4 -29 -2 -32 -83 -43 -27 -4 -62 -13 -77 -21 -50 -26 -54 -118 -7 -156
34 -28 110 -24 148 8 l31 26 0 -26 c0 -24 4 -26 40 -26 l40 0 0 134 c0 119 -2
136 -20 159 -30 38 -102 55 -177 40z m91 -254 c-22 -25 -82 -22 -98 4 -17 27
5 51 60 63 l49 10 3 -29 c2 -17 -4 -37 -14 -48z"/>
<path d="M14050 2220 l0 -170 45 0 45 0 0 114 c0 112 1 115 26 135 34 27 50
26 79 -4 24 -23 25 -31 25 -135 l0 -110 46 0 46 0 -4 133 c-2 106 -7 137 -21
158 -38 56 -131 64 -174 14 -28 -32 -33 -32 -33 5 0 28 -2 30 -40 30 l-40 0 0
-170z"/>
<path d="M15053 2383 c-28 -5 -83 -56 -83 -77 0 -24 64 -21 100 6 39 29 83 17
88 -24 4 -29 -2 -32 -83 -43 -27 -4 -62 -13 -77 -21 -50 -26 -54 -118 -7 -156
34 -28 110 -24 148 8 l31 26 0 -26 c0 -24 4 -26 40 -26 l40 0 0 134 c0 119 -2
136 -20 159 -30 38 -102 55 -177 40z m91 -254 c-22 -25 -82 -22 -98 4 -17 27
5 51 60 63 l49 10 3 -29 c2 -17 -4 -37 -14 -48z"/>
<path d="M15330 2265 c0 -135 9 -169 52 -199 43 -30 114 -17 150 28 17 21 18
21 18 -11 0 -32 1 -33 45 -33 l45 0 -2 168 -3 167 -42 3 -43 3 0 -111 c0 -104
-1 -112 -25 -135 -29 -30 -58 -32 -85 -5 -18 18 -20 33 -20 135 l0 115 -45 0
-45 0 0 -125z"/>
<path d="M15970 2383 c-81 -26 -110 -100 -62 -156 15 -16 35 -24 130 -47 43
-11 55 -33 30 -58 -19 -19 -73 -14 -93 8 -21 23 -95 29 -95 7 0 -21 29 -56 60
-72 34 -18 132 -20 163 -4 44 23 67 52 67 85 0 64 -21 82 -119 103 -78 17 -96
34 -65 65 21 22 60 20 84 -4 27 -27 90 -28 90 -2 0 23 -35 57 -73 71 -29 11
-90 13 -117 4z"/>
<path d="M16310 2368 c-56 -29 -80 -74 -80 -148 0 -108 58 -170 160 -170 68 0
116 27 142 80 24 47 23 135 0 180 -22 42 -90 80 -142 80 -20 0 -56 -10 -80
-22z m116 -56 c22 -14 34 -51 34 -102 0 -41 -5 -56 -26 -76 -29 -30 -67 -27
-96 8 -26 30 -24 117 3 152 20 26 61 35 85 18z"/>
<path d="M16620 2220 l0 -170 45 0 45 0 0 114 c0 112 1 115 26 135 34 27 50
26 79 -4 24 -23 25 -31 25 -135 l0 -110 46 0 46 0 -4 133 c-2 106 -7 137 -21
158 -38 56 -131 64 -174 14 -28 -32 -33 -32 -33 5 0 28 -2 30 -40 30 l-40 0 0
-170z"/>
<path d="M7181 2242 c-13 -25 3 -49 39 -57 32 -7 40 -32 15 -41 -8 -4 -22 -1
-30 6 -22 19 -41 7 -21 -13 21 -20 55 -22 80 -4 27 20 15 50 -27 70 -51 24
-49 41 5 33 36 -6 40 -5 28 9 -18 21 -77 20 -89 -3z"/>
<path d="M7720 2190 c0 -40 4 -70 10 -70 6 0 10 11 10 25 0 20 5 25 24 25 45
0 72 50 44 78 -7 7 -29 12 -50 12 l-38 0 0 -70z m68 28 c-2 -15 -11 -24 -25
-26 -19 -3 -23 1 -23 22 0 21 5 26 26 26 21 0 25 -4 22 -22z"/>
<path d="M8080 2190 c0 -56 3 -70 15 -70 12 0 15 14 15 70 0 56 -3 70 -15 70
-12 0 -15 -14 -15 -70z"/>
<path d="M7317 2212 c-10 -10 -17 -28 -17 -40 0 -45 63 -70 91 -36 11 14 9 15
-24 9 -30 -6 -37 -4 -37 9 0 12 9 16 35 16 39 0 46 17 17 43 -24 22 -45 21
-65 -1z m53 -17 c0 -8 -9 -15 -20 -15 -20 0 -26 11 -13 23 12 13 33 7 33 -8z"/>
<path d="M7443 2223 c-22 -8 -14 -22 11 -20 36 3 36 -17 0 -23 -23 -4 -29 -10
-29 -30 0 -23 4 -25 43 -26 l42 -1 0 42 c0 56 -23 76 -67 58z m47 -62 c0 -6
-5 -13 -10 -16 -15 -9 -43 3 -35 15 8 13 45 13 45 1z"/>
<path d="M7547 2223 c-4 -3 -7 -28 -7 -55 0 -36 4 -48 15 -48 11 0 15 11 15
39 0 22 5 43 12 47 15 10 38 -24 38 -58 0 -15 5 -28 10 -28 6 0 10 20 10 44 0
53 -21 77 -51 58 -11 -7 -19 -8 -19 -2 0 11 -13 13 -23 3z"/>
<path d="M7863 2223 c-22 -8 -14 -22 11 -20 36 3 36 -17 0 -23 -23 -4 -29 -10
-29 -30 0 -23 4 -25 43 -26 l42 -1 0 42 c0 56 -23 76 -67 58z m47 -62 c0 -6
-5 -13 -10 -16 -15 -9 -43 3 -35 15 8 13 45 13 45 1z"/>
<path d="M7964 2215 c-9 -23 5 -85 21 -91 7 -3 23 -1 34 6 14 7 21 7 21 0 0
-5 5 -10 10 -10 6 0 10 25 10 56 0 66 -22 72 -30 8 -7 -56 -34 -53 -38 4 -3
42 -17 56 -28 27z"/>
<path d="M8146 2217 c-24 -17 -11 -43 25 -51 18 -3 28 -10 24 -16 -4 -7 -19
-8 -38 -4 -28 6 -30 5 -18 -10 15 -17 48 -21 69 -7 21 13 10 44 -17 51 -14 3
-27 12 -29 19 -3 10 4 12 29 7 32 -7 33 -6 15 9 -24 18 -37 19 -60 2z"/>
<path d="M8257 2212 c-21 -23 -22 -56 -1 -76 32 -32 84 -11 84 34 0 53 -50 78
-83 42z m58 -21 c8 -26 -5 -53 -24 -49 -29 6 -27 68 3 68 8 0 17 -8 21 -19z"/>
<path d="M8367 2223 c-4 -3 -7 -28 -7 -55 0 -36 4 -48 15 -48 11 0 15 11 15
39 0 22 5 43 12 47 15 10 38 -24 38 -58 0 -15 5 -28 10 -28 6 0 10 20 10 44 0
53 -21 77 -51 58 -11 -7 -19 -8 -19 -2 0 11 -13 13 -23 3z"/>
<path d="M10116 1334 c-9 -8 -16 -26 -16 -38 0 -19 11 -28 51 -44 31 -13 49
-27 47 -34 -6 -18 -37 -22 -63 -8 -36 19 -53 8 -27 -18 44 -44 132 -14 119 40
-5 20 -18 30 -49 40 -44 15 -57 40 -24 46 10 2 29 -2 42 -9 31 -16 42 -4 19
21 -22 24 -77 27 -99 4z"/>
<path d="M10780 1260 c0 -73 3 -90 15 -90 10 0 15 10 15 30 0 27 3 30 30 30
17 0 39 9 50 20 45 45 9 100 -65 100 l-45 0 0 -90z m94 44 c9 -22 -11 -44 -40
-44 -20 0 -24 5 -24 30 0 26 3 30 29 30 17 0 31 -6 35 -16z"/>
<path d="M11250 1260 c0 -73 3 -90 15 -90 12 0 15 17 15 90 0 73 -3 90 -15 90
-12 0 -15 -17 -15 -90z"/>
<path d="M10264 1275 c-41 -63 31 -135 92 -91 24 18 10 34 -16 18 -22 -14 -50
-6 -50 14 0 10 13 14 45 14 49 0 56 10 29 48 -22 32 -78 30 -100 -3z m80 -10
c4 -11 -2 -15 -24 -15 -29 0 -38 9 -23 23 12 12 41 7 47 -8z"/>
<path d="M10417 1293 c-15 -14 -5 -22 26 -20 44 3 46 -16 3 -26 -41 -10 -56
-41 -32 -65 13 -14 21 -14 46 -5 17 6 30 7 30 2 0 -5 7 -9 15 -9 19 0 21 100
3 118 -13 13 -80 17 -91 5z m71 -75 c-7 -21 -36 -34 -49 -21 -6 6 -8 16 -5 22
10 15 59 14 54 -1z"/>
<path d="M10560 1235 c0 -49 3 -65 14 -65 10 0 15 16 18 55 4 65 1 75 -18 75
-11 0 -14 -16 -14 -65z"/>
<path d="M10600 1292 c0 -4 10 -12 23 -17 18 -8 23 -19 25 -57 2 -34 7 -48 18
-48 18 0 20 100 2 118 -13 13 -68 17 -68 4z"/>
<path d="M10947 1293 c-15 -14 -5 -22 26 -20 44 3 46 -16 3 -26 -41 -10 -56
-41 -32 -65 13 -14 21 -14 46 -5 17 6 30 7 30 2 0 -5 7 -9 15 -9 19 0 21 100
3 118 -13 13 -80 17 -91 5z m71 -75 c-7 -21 -36 -34 -49 -21 -6 6 -8 16 -5 22
10 15 59 14 54 -1z"/>
<path d="M11092 1244 c4 -67 23 -88 60 -65 16 10 23 10 26 2 2 -6 10 -11 18
-11 11 0 14 16 14 65 0 51 -3 65 -15 65 -11 0 -15 -11 -15 -37 0 -47 -12 -66
-36 -61 -15 2 -20 14 -22 51 -2 34 -7 47 -18 47 -12 0 -14 -12 -12 -56z"/>
<path d="M11327 1294 c-4 -4 -7 -18 -7 -31 0 -18 7 -25 31 -30 30 -6 48 -27
35 -40 -3 -4 -17 -1 -30 6 -33 18 -54 10 -32 -12 34 -34 112 -10 104 32 -2 9
-19 21 -38 27 -49 16 -54 39 -5 30 28 -6 36 -4 33 6 -5 14 -79 24 -91 12z"/>
<path d="M11464 1275 c-44 -67 40 -141 96 -85 24 24 26 72 4 94 -25 25 -81 20
-100 -9z m74 -7 c16 -16 15 -44 -3 -62 -23 -23 -45 -9 -45 28 0 46 21 61 48
34z"/>
<path d="M11610 1235 c0 -49 3 -65 14 -65 10 0 15 16 18 55 4 65 1 75 -18 75
-11 0 -14 -16 -14 -65z"/>
<path d="M11650 1292 c0 -4 10 -12 23 -17 18 -8 23 -19 25 -57 2 -34 7 -48 18
-48 18 0 20 100 2 118 -13 13 -68 17 -68 4z"/>
<path d="M3518 1219 c-43 -22 -68 -63 -68 -112 0 -63 44 -96 173 -132 44 -12
61 -22 70 -42 10 -23 8 -28 -16 -49 -18 -15 -41 -24 -61 -24 -36 0 -86 33 -86
56 0 10 -13 14 -45 14 -39 0 -45 -3 -45 -21 0 -12 9 -36 20 -54 58 -93 276
-86 316 10 19 46 18 74 -6 112 -23 38 -54 56 -134 76 -90 24 -116 57 -76 97
31 31 86 27 120 -10 21 -23 37 -30 64 -30 28 0 36 4 36 18 0 31 -40 83 -75 98
-50 20 -142 17 -187 -7z"/>
<path d="M5120 1016 l0 -226 45 0 44 0 3 73 3 72 75 5 c84 7 122 25 147 74 21
40 20 116 -2 154 -32 54 -67 66 -197 70 l-118 4 0 -226z m221 128 c12 -11 19
-31 19 -55 0 -52 -35 -79 -101 -79 l-49 0 0 73 c0 41 3 77 8 81 12 13 103 -2
123 -20z"/>
<path d="M6260 1015 l0 -225 45 0 45 0 0 225 0 225 -45 0 -45 0 0 -225z"/>
<path d="M18582 1187 c-41 -43 -20 -83 54 -107 37 -11 49 -20 49 -35 0 -16 -8
-21 -38 -23 -26 -2 -39 1 -43 12 -8 20 -44 21 -44 2 0 -36 58 -63 112 -52 44
9 58 24 58 61 0 39 -13 51 -71 68 -32 9 -45 19 -47 34 -4 29 31 40 63 19 48
-31 73 -14 35 24 -29 29 -99 28 -128 -3z"/>
<path d="M18790 1130 c-29 -29 -28 -99 3 -128 27 -26 73 -29 105 -6 41 28 15
49 -28 22 -23 -15 -53 -2 -58 26 -3 13 6 16 57 16 l61 0 -6 28 c-4 15 -14 35
-22 45 -21 24 -86 23 -112 -3z m88 -32 c3 -15 -4 -18 -32 -18 -34 0 -47 15
-29 34 13 13 58 1 61 -16z"/>
<path d="M18976 1131 c-16 -17 -16 -19 4 -24 11 -3 23 -1 26 4 3 5 16 9 30 9
19 0 25 -5 22 -17 -2 -10 -12 -19 -23 -21 -51 -7 -65 -14 -75 -33 -25 -45 51
-94 88 -57 9 9 12 9 12 0 0 -7 9 -12 20 -12 18 0 20 7 20 73 0 43 -5 78 -12
85 -19 19 -92 15 -112 -7z m82 -93 c-4 -31 -58 -40 -58 -9 0 20 12 29 43 30
14 1 18 -5 15 -21z"/>
<path d="M19150 1065 c0 -76 2 -85 19 -85 15 0 19 10 24 66 6 80 0 104 -24
104 -17 0 -19 -8 -19 -85z"/>
<path d="M3933 1111 c-105 -48 -114 -232 -14 -298 42 -28 126 -31 177 -7 34
16 70 65 57 78 -13 13 -66 5 -90 -14 -29 -23 -51 -25 -87 -9 -24 11 -50 61
-39 73 4 3 55 6 115 6 l108 0 0 44 c0 112 -116 177 -227 127z m131 -73 c29
-41 21 -48 -54 -48 -59 0 -70 3 -70 17 0 51 94 75 124 31z"/>
<path d="M4313 1123 c-28 -5 -83 -56 -83 -77 0 -24 64 -21 100 6 39 29 83 17
88 -24 4 -29 -2 -32 -83 -43 -27 -4 -62 -13 -77 -21 -50 -26 -54 -118 -7 -156
34 -28 110 -24 148 8 l31 26 0 -26 c0 -24 4 -26 40 -26 l40 0 0 134 c0 119 -2
136 -20 159 -30 38 -102 55 -177 40z m91 -254 c-22 -25 -82 -22 -98 4 -17 27
5 51 60 63 l49 10 3 -29 c2 -17 -4 -37 -14 -48z"/>
<path d="M4590 960 l0 -170 45 0 45 0 0 114 c0 112 1 115 26 135 34 27 50 26
79 -4 24 -23 25 -31 25 -135 l0 -110 46 0 46 0 -4 133 c-2 106 -7 137 -21 158
-38 56 -131 64 -174 14 -28 -32 -33 -32 -33 5 0 28 -2 30 -40 30 l-40 0 0
-170z"/>
<path d="M5593 1123 c-28 -5 -83 -56 -83 -77 0 -24 64 -21 100 6 39 29 83 17
88 -24 4 -29 -2 -32 -83 -43 -27 -4 -62 -13 -77 -21 -50 -26 -54 -118 -7 -156
34 -28 110 -24 148 8 l31 26 0 -26 c0 -24 4 -26 40 -26 l40 0 0 134 c0 119 -2
136 -20 159 -30 38 -102 55 -177 40z m91 -254 c-22 -25 -82 -22 -98 4 -17 27
5 51 60 63 l49 10 3 -29 c2 -17 -4 -37 -14 -48z"/>
<path d="M5870 1005 c0 -135 9 -169 52 -199 43 -30 114 -17 150 28 17 21 18
21 18 -11 0 -32 1 -33 45 -33 l45 0 -2 168 -3 167 -42 3 -43 3 0 -111 c0 -104
-1 -112 -25 -135 -29 -30 -58 -32 -85 -5 -18 18 -20 33 -20 135 l0 115 -45 0
-45 0 0 -125z"/>
<path d="M6510 1123 c-81 -26 -110 -100 -62 -156 15 -16 35 -24 130 -47 43
-11 55 -33 30 -58 -19 -19 -73 -14 -93 8 -21 23 -95 29 -95 7 0 -21 29 -56 60
-72 34 -18 132 -20 163 -4 44 23 67 52 67 85 0 64 -21 82 -119 103 -78 17 -96
34 -65 65 21 22 60 20 84 -4 27 -27 90 -28 90 -2 0 23 -35 57 -73 71 -29 11
-90 13 -117 4z"/>
<path d="M6850 1108 c-56 -29 -80 -74 -80 -148 0 -108 58 -170 160 -170 68 0
116 27 142 80 24 47 23 135 0 180 -22 42 -90 80 -142 80 -20 0 -56 -10 -80
-22z m116 -56 c22 -14 34 -51 34 -102 0 -41 -5 -56 -26 -76 -29 -30 -67 -27
-96 8 -26 30 -24 117 3 152 20 26 61 35 85 18z"/>
<path d="M7160 960 l0 -170 45 0 45 0 0 114 c0 112 1 115 26 135 34 27 50 26
79 -4 24 -23 25 -31 25 -135 l0 -110 46 0 46 0 -4 133 c-2 106 -7 137 -21 158
-38 56 -131 64 -174 14 -28 -32 -33 -32 -33 5 0 28 -2 30 -40 30 l-40 0 0
-170z"/>
<path d="M160 685 l0 -115 25 0 c23 0 25 4 25 40 l0 40 40 0 c51 0 80 27 80
74 0 51 -36 76 -111 76 l-59 0 0 -115z m108 69 c12 -8 22 -21 22 -29 0 -21
-29 -45 -56 -45 -22 0 -24 4 -24 45 0 50 16 58 58 29z"/>
<path d="M760 685 c0 -108 1 -115 20 -115 19 0 20 7 20 115 0 108 -1 115 -20
115 -19 0 -20 -7 -20 -115z"/>
<path d="M0 655 c0 -84 0 -85 25 -85 24 0 25 2 25 63 0 60 -18 107 -41 107 -5
0 -9 -38 -9 -85z"/>
<path d="M386 721 c-16 -17 -16 -19 4 -24 11 -3 23 -1 26 4 3 5 16 9 30 9 19
0 25 -5 22 -17 -2 -10 -12 -19 -23 -21 -51 -7 -65 -14 -75 -33 -25 -45 51 -94
88 -57 9 9 12 9 12 0 0 -7 9 -12 20 -12 18 0 20 7 20 73 0 43 -5 78 -12 85
-19 19 -92 15 -112 -7z m82 -93 c-4 -31 -58 -40 -58 -9 0 20 12 29 43 30 14 1
18 -5 15 -21z"/>
<path d="M560 675 c0 -52 4 -69 20 -85 24 -24 53 -26 74 -5 8 8 17 15 20 15 3
0 6 -7 6 -15 0 -8 9 -15 20 -15 18 0 20 7 20 85 0 84 0 85 -25 85 -23 0 -24
-4 -27 -62 -3 -53 -6 -63 -22 -66 -28 -6 -46 25 -46 80 0 41 -3 48 -20 48 -18
0 -20 -7 -20 -65z"/>
<path d="M868 729 c-21 -12 -24 -52 -5 -67 6 -6 27 -14 46 -19 19 -5 36 -14
39 -21 6 -18 -28 -27 -49 -14 -26 16 -49 15 -49 -3 0 -32 89 -49 122 -22 41
33 26 69 -37 89 -52 17 -46 34 10 31 50 -3 52 -1 29 21 -17 18 -80 21 -106 5z"/>
<path d="M1050 720 c-29 -29 -28 -99 3 -128 76 -72 181 39 116 122 -26 33 -88
37 -119 6z m90 -31 c25 -47 -19 -109 -55 -79 -18 15 -20 71 -3 88 18 18 46 14
58 -9z"/>
<path d="M1230 655 c0 -78 2 -85 20 -85 17 0 20 7 20 44 0 65 15 98 43 94 20
-3 22 -9 25 -70 3 -65 4 -68 27 -68 24 0 25 3 25 63 0 73 -18 107 -57 107 -15
0 -35 -7 -45 -17 -17 -15 -18 -15 -18 0 0 10 -8 17 -20 17 -18 0 -20 -7 -20
-85z"/>
</g>
</svg>
